<svg width="24" height="24" viewBox="0 0 24 24" fill="none" xmlns="http://www.w3.org/2000/svg">
<rect width="24" height="24" rx="5.67372" fill="#ED0018"/>
<path d="M14.5121 9.01294C14.8644 9.01294 15.1721 9.05755 15.4349 9.14673C15.6978 9.23625 15.917 9.36246 16.0931 9.52466C16.2693 9.68689 16.4041 9.87686 16.4965 10.095C16.5887 10.3129 16.6342 10.5475 16.6342 10.7991V11.0676H15.3265V10.8577C15.3265 10.7293 15.3059 10.6179 15.267 10.5227C15.2279 10.4275 15.1726 10.3489 15.1 10.2874C15.0273 10.2261 14.9388 10.1774 14.8353 10.1409C14.7319 10.1044 14.6131 10.0862 14.4789 10.0862C14.3669 10.0862 14.2621 10.0992 14.1644 10.1243C14.0664 10.1493 13.9812 10.1854 13.9086 10.2327C13.8359 10.2802 13.7796 10.3387 13.7406 10.4084C13.7015 10.4783 13.682 10.5616 13.682 10.6565V10.7991C13.6821 10.9386 13.7253 11.0492 13.8119 11.1301C13.8985 11.211 14.0132 11.2783 14.1556 11.3313C14.2982 11.3846 14.4624 11.4289 14.6469 11.4651C14.8312 11.5013 15.0173 11.5438 15.2045 11.5911C15.3917 11.6387 15.5777 11.699 15.7621 11.7717C15.9465 11.8444 16.1087 11.9405 16.2484 12.0608V12.0618C16.3881 12.1821 16.5016 12.3333 16.5883 12.5149C16.6745 12.6968 16.7181 12.9216 16.7181 13.1897V13.4417C16.7181 13.7266 16.6649 13.9765 16.559 14.1917C16.4527 14.4068 16.2991 14.5832 16.098 14.72C15.8967 14.8568 15.6615 14.9607 15.3929 15.0305C15.1244 15.1003 14.8253 15.135 14.4955 15.135C14.1153 15.135 13.7803 15.0917 13.4896 15.0051C13.1989 14.9188 12.9581 14.7962 12.7679 14.637C12.5778 14.4777 12.4351 14.2789 12.3402 14.0413C12.2453 13.8038 12.1976 13.536 12.1976 13.2395V13.1975H13.4974C13.4984 13.3288 13.5207 13.4481 13.5648 13.5549C13.6096 13.664 13.6766 13.7548 13.766 13.8274C13.8552 13.9004 13.9635 13.9574 14.0892 13.9993C14.2152 14.0411 14.3536 14.0618 14.5043 14.0618C14.6438 14.0618 14.7685 14.0511 14.8773 14.0286C14.9865 14.0063 15.0791 13.9694 15.1547 13.9192C15.2296 13.8688 15.2852 13.805 15.3217 13.7268C15.3582 13.6484 15.3763 13.5558 15.3763 13.4495V13.2317C15.3763 13.0977 15.3331 12.9873 15.2465 12.9006C15.1598 12.814 15.0452 12.7426 14.9027 12.6868C14.7602 12.6312 14.5979 12.5822 14.4164 12.5403C14.2345 12.4984 14.0489 12.451 13.8588 12.3977C13.6686 12.3447 13.4827 12.281 13.3011 12.2083C13.1192 12.1356 12.9553 12.0385 12.8099 11.9153C12.6645 11.7921 12.5511 11.6412 12.4701 11.4622C12.3891 11.2834 12.349 11.0619 12.349 10.7991V10.6145C12.3491 10.335 12.4033 10.096 12.5121 9.89771C12.621 9.69928 12.7766 9.53403 12.9779 9.40259C13.1787 9.27128 13.4095 9.17405 13.6693 9.10962C13.9292 9.04551 14.2103 9.01297 14.5121 9.01294ZM8.4281 12.8625C8.42811 13.019 8.44111 13.1672 8.46619 13.3069C8.49127 13.4466 8.5369 13.5686 8.60388 13.6721C8.67119 13.7756 8.76824 13.8566 8.89392 13.9153C9.01986 13.9739 9.18333 14.0031 9.36755 14.0032C9.55183 14.0032 9.70432 13.9719 9.82458 13.9104C9.94487 13.8491 10.0389 13.7678 10.1058 13.6672C10.1728 13.5667 10.2205 13.4464 10.2484 13.3069C10.2763 13.1673 10.2904 13.0159 10.2904 12.8538L10.2894 12.8528V9.13794H11.5648V12.929C11.5648 13.2139 11.5356 13.4669 11.4769 13.6877C11.4182 13.9087 11.3373 14.1007 11.2338 14.2629C11.1303 14.425 11.0071 14.5604 10.8646 14.6692C10.7221 14.778 10.5684 14.8679 10.4037 14.9377C10.2387 15.0075 10.0666 15.0573 9.88806 15.0881C9.70908 15.1186 9.52423 15.134 9.35095 15.134C9.17761 15.134 9.00274 15.1189 8.82654 15.0881C8.65037 15.0573 8.47956 15.0086 8.31482 14.9417C8.14974 14.8747 7.99642 14.7859 7.85388 14.677C7.71101 14.5681 7.5859 14.433 7.47986 14.2708C7.37386 14.1085 7.29151 13.9154 7.23279 13.6917C7.17412 13.4683 7.14491 13.2138 7.1449 12.929V9.13794H8.4281V12.8625ZM18.6351 10.4709C18.6351 10.6274 18.6481 10.7756 18.6732 10.9153C18.6983 11.0549 18.7439 11.177 18.8109 11.2805C18.8782 11.3839 18.9753 11.465 19.101 11.5237C19.2269 11.5823 19.3904 11.6116 19.5746 11.6116C19.7589 11.6116 19.9113 11.5803 20.0316 11.5188C20.1519 11.4575 20.2459 11.3763 20.3129 11.2756C20.3798 11.1751 20.4275 11.0548 20.4554 10.9153C20.4789 10.7982 20.4917 10.6722 20.4955 10.5393V9.47681H20.4974V9.13794H21.7719V13.4407C21.7718 13.7256 21.7186 13.9755 21.6127 14.1907C21.5064 14.4058 21.3528 14.5822 21.1517 14.719C20.9505 14.8558 20.7152 14.9597 20.4467 15.0295C20.1782 15.0994 19.9796 15.134 19.6498 15.134C19.2696 15.134 18.9346 15.0908 18.6439 15.0042C18.3532 14.9178 18.1124 14.7953 17.9222 14.636C17.7321 14.4767 17.5894 14.278 17.4945 14.0403C17.3996 13.8028 17.3519 13.5351 17.3519 13.2385V13.1965H18.6517C18.6527 13.3278 18.675 13.4471 18.7191 13.554C18.7639 13.663 18.8309 13.7538 18.9203 13.8264C19.0095 13.8994 19.1178 13.9564 19.2435 13.9983C19.3695 14.0402 19.5078 14.0608 19.6586 14.0608C19.7983 14.0608 19.8876 14.0501 19.9965 14.0276C20.1056 14.0054 20.1973 13.9683 20.2728 13.9182C20.348 13.8678 20.4043 13.8042 20.4408 13.7258C20.4773 13.6474 20.4955 13.5548 20.4955 13.4485V12.5911C20.3659 12.6381 20.2319 12.6737 20.0941 12.6975C19.9153 12.7279 19.7311 12.7434 19.558 12.7434C19.3847 12.7434 19.2097 12.7283 19.0336 12.6975C18.8575 12.6667 18.6865 12.618 18.5219 12.551C18.3568 12.484 18.2025 12.3953 18.0599 12.2864C17.9173 12.1776 17.7928 12.0422 17.6869 11.8801C17.5809 11.7179 17.4986 11.5248 17.4398 11.301C17.3811 11.0775 17.3519 10.8225 17.3519 10.5374V9.13794H18.6351V10.4709ZM4.58142 9.13794C4.85541 9.13794 5.10054 9.165 5.3158 9.21802C5.53095 9.27104 5.7125 9.35338 5.86072 9.46509C6.00855 9.57707 6.1232 9.72072 6.20447 9.89673C6.2854 10.0729 6.32651 10.2815 6.32654 10.5217V10.7483C6.32654 10.8994 6.30392 11.0396 6.25916 11.1682C6.21443 11.2965 6.15254 11.4094 6.07458 11.5071C5.99617 11.6049 5.90223 11.6861 5.79333 11.7502C5.68453 11.8146 5.56324 11.8665 5.42908 11.9055V11.9231C5.60776 11.951 5.76455 12.0008 5.8988 12.0735C5.99927 12.1279 6.08712 12.1918 6.16248 12.2649L6.23376 12.342C6.32298 12.4481 6.39122 12.5715 6.43884 12.7112C6.48646 12.8512 6.51111 13.0021 6.51111 13.1643V13.4495C6.51108 13.7122 6.46785 13.9415 6.38123 14.137C6.29457 14.3325 6.16697 14.4947 5.99939 14.6233C5.83144 14.7519 5.62539 14.8482 5.3822 14.9124C5.1391 14.9767 4.85801 15.009 4.53943 15.009H2.12439V9.13794H4.58142ZM3.39099 12.4006V13.9768H4.30505C4.43911 13.9768 4.56057 13.9681 4.66931 13.9485C4.77821 13.9291 4.87214 13.8945 4.95056 13.8469C5.02862 13.7996 5.08933 13.7313 5.13123 13.6418C5.17305 13.5524 5.1937 13.4465 5.19373 13.3235V13.0627C5.19371 12.9233 5.17405 12.8115 5.13513 12.7278C5.09608 12.644 5.03543 12.5781 4.95447 12.5305C4.87354 12.4833 4.77815 12.4496 4.66931 12.4299C4.56018 12.4106 4.43581 12.4006 4.29626 12.4006H3.39099ZM3.39099 10.1692L3.39001 11.5618H4.24548C4.37406 11.5618 4.48957 11.5511 4.59021 11.5286C4.69097 11.5063 4.77429 11.4706 4.84119 11.4231C4.9084 11.3759 4.9589 11.316 4.99255 11.2434C5.02589 11.1707 5.04236 11.0781 5.04236 10.9661V10.7649C5.04235 10.6474 5.0262 10.5524 4.99255 10.4797C4.9589 10.4071 4.91153 10.3467 4.84998 10.2991C4.78842 10.2519 4.70835 10.2181 4.61072 10.1985C4.51302 10.1792 4.3993 10.1692 4.27087 10.1692H3.39099Z" fill="white"/>
</svg>
