<svg width="43" height="43" viewBox="0 0 43 43" fill="none" xmlns="http://www.w3.org/2000/svg">
<rect x="5.375" y="5.375" width="2.6875" height="29.5625" fill="#A42318"/>
<rect x="8.0625" y="2.6875" width="2.6875" height="34.9375" fill="#D03125"/>
<rect x="8.0625" y="5.375" width="2.6875" height="5.375" fill="#E2645A"/>
<rect x="8.0625" y="16.125" width="2.6875" height="2.6875" fill="#E2645A"/>
<rect x="8.0625" y="32.25" width="2.6875" height="5.375" fill="#741911"/>
<rect x="8.0625" y="29.5625" width="2.6875" height="2.6875" fill="#8E1E15"/>
<rect x="5.375" y="34.9375" width="2.6875" height="2.6875" fill="#851C14"/>
<rect x="10.75" y="2.6875" width="2.6875" height="34.9375" fill="#A42318"/>
<rect x="10.75" y="32.25" width="2.6875" height="5.375" fill="#E99A5A"/>
<rect x="8.0625" y="37.625" width="29.5625" height="2.6875" fill="#A42318"/>
<rect x="21.5" y="37.625" width="8.0625" height="2.6875" fill="#8E1E15"/>
<rect x="29.5625" y="37.625" width="8.0625" height="2.6875" fill="#741911"/>
<rect x="13.4375" y="2.6875" width="24.1875" height="26.875" fill="#D03125"/>
<rect x="10.75" y="29.5625" width="26.875" height="2.6875" fill="#F6B988"/>
<rect x="13.4375" y="32.25" width="24.1875" height="2.6875" fill="#FDE8D6"/>
<rect x="13.4375" y="34.9375" width="24.1875" height="2.6875" fill="#F9CFAD"/>
<rect x="10.75" y="21.5" width="2.6875" height="8.0625" fill="#8E1E15"/>
<rect x="21.5" y="29.5625" width="2.6875" height="10.75" transform="rotate(90 21.5 29.5625)" fill="#F3A05D"/>
<rect x="37.625" y="29.5625" width="2.6875" height="2.6875" transform="rotate(90 37.625 29.5625)" fill="#F3A05D"/>
<rect x="13.4375" y="24.1875" width="2.6875" height="2.6875" fill="#FBAE00"/>
<rect x="16.125" y="2.6875" width="2.6875" height="2.6875" fill="#FBAE00"/>
<rect x="13.4375" y="5.375" width="2.6875" height="2.6875" fill="#FBAE00"/>
<rect x="34.9375" y="24.1875" width="2.6875" height="2.6875" fill="#FBAE00"/>
<rect x="34.9375" y="5.375" width="2.6875" height="2.6875" fill="#FBAE00"/>
<rect x="32.25" y="2.6875" width="2.6875" height="2.6875" fill="#FBAE00"/>
<rect x="13.4375" y="26.875" width="2.6875" height="2.6875" fill="#FCF144"/>
<rect x="13.4375" y="2.6875" width="2.6875" height="2.6875" fill="#FCF144"/>
<rect x="34.9375" y="26.875" width="2.6875" height="2.6875" fill="#FCF144"/>
<rect x="34.9375" y="2.6875" width="2.6875" height="2.6875" fill="#FCF144"/>
<rect x="16.125" y="26.875" width="2.6875" height="2.6875" fill="#FFCE47"/>
<rect x="32.25" y="26.875" width="2.6875" height="2.6875" fill="#FFCE47"/>
<rect x="24.1875" y="34.9375" width="2.6875" height="8.0625" fill="#05613B"/>
<rect x="29.5625" y="34.9375" width="2.6875" height="8.0625" fill="#09A75C"/>
<rect x="26.875" y="34.9375" width="2.6875" height="5.375" fill="#078B4A"/>
<rect x="18.8125" y="13.4375" width="2.6875" height="5.375" fill="#A42318"/>
<rect x="29.5625" y="13.4375" width="2.6875" height="5.375" fill="#A42318"/>
<rect x="29.5625" y="10.75" width="2.6875" height="8.0625" transform="rotate(90 29.5625 10.75)" fill="#8E1E15"/>
<rect x="21.5" y="13.4375" width="2.6875" height="2.6875" transform="rotate(90 21.5 13.4375)" fill="#8E1E15"/>
<rect x="32.25" y="13.4375" width="2.6875" height="2.6875" transform="rotate(90 32.25 13.4375)" fill="#8E1E15"/>
<rect x="29.5625" y="18.8125" width="2.6875" height="8.0625" transform="rotate(90 29.5625 18.8125)" fill="#A42318"/>
<rect x="32.25" y="26.875" width="2.6875" height="13.4375" transform="rotate(90 32.25 26.875)" fill="#9C2117"/>
<rect x="34.9375" y="24.1875" width="2.6875" height="18.8125" transform="rotate(90 34.9375 24.1875)" fill="#B2261A"/>
<rect x="37.625" y="21.5" width="2.6875" height="24.1875" transform="rotate(90 37.625 21.5)" fill="#BF291C"/>
<rect x="16.125" y="18.8125" width="2.6875" height="2.6875" transform="rotate(90 16.125 18.8125)" fill="#BF291C"/>
<rect x="37.625" y="18.8125" width="2.6875" height="2.6875" transform="rotate(90 37.625 18.8125)" fill="#BF291C"/>
<rect x="24.1875" y="2.6875" width="2.6875" height="5.375" transform="rotate(90 24.1875 2.6875)" fill="#BF291C"/>
<rect x="32.25" y="2.6875" width="2.6875" height="5.375" transform="rotate(90 32.25 2.6875)" fill="#E2645A"/>
</svg>
