<svg width="43" height="43" viewBox="0 0 43 43" fill="none" xmlns="http://www.w3.org/2000/svg">
<rect x="2.6875" y="13.4375" width="2.6875" height="13.4375" fill="#607DCD"/>
<rect x="5.375" y="13.4375" width="2.6875" height="13.4375" fill="#C7D5F9"/>
<rect x="32.25" y="13.4375" width="2.6875" height="13.4375" fill="#C7D5F9"/>
<rect x="8.0625" y="10.75" width="24.1875" height="2.6875" fill="#C7D5F9"/>
<rect x="8.0625" y="26.875" width="24.1875" height="2.6875" fill="#C7D5F9"/>
<rect x="5.375" y="10.75" width="2.6875" height="2.6875" fill="#607DCD"/>
<rect x="5.375" y="26.875" width="2.6875" height="2.6875" fill="#607DCD"/>
<rect x="8.0625" y="29.5625" width="24.1875" height="2.6875" fill="#607DCD"/>
<rect x="8.0625" y="32.25" width="2.6875" height="5.375" fill="#607DCD"/>
<rect x="10.75" y="29.5625" width="2.6875" height="5.375" fill="#607DCD"/>
<rect x="32.25" y="26.875" width="2.6875" height="2.6875" fill="#607DCD"/>
<rect x="8.0625" y="8.0625" width="24.1875" height="2.6875" fill="#607DCD"/>
<rect x="32.25" y="10.75" width="2.6875" height="2.6875" fill="#607DCD"/>
<rect x="34.9375" y="13.4375" width="2.6875" height="13.4375" fill="#607DCD"/>
<rect x="8.0625" y="13.4375" width="24.1875" height="13.4375" fill="#FFFDFE"/>
<rect x="8.0625" y="13.4375" width="2.6875" height="2.6875" fill="#C7D5F9"/>
<rect x="8.0625" y="24.1875" width="2.6875" height="2.6875" fill="#C7D5F9"/>
<rect x="10.75" y="29.5625" width="2.6875" height="2.6875" fill="#C7D5F9"/>
<rect x="10.75" y="26.875" width="2.6875" height="2.6875" fill="#FFFDFE"/>
<rect x="29.5625" y="24.1875" width="2.6875" height="2.6875" fill="#C7D5F9"/>
<rect x="29.5625" y="13.4375" width="2.6875" height="2.6875" fill="#C7D5F9"/>
<rect x="8.0625" y="32.25" width="2.6875" height="5.375" fill="#2E4075"/>
<rect x="34.9375" y="29.5625" width="2.6875" height="2.6875" transform="rotate(90 34.9375 29.5625)" fill="#2E4075"/>
<rect x="37.625" y="26.875" width="2.6875" height="2.6875" transform="rotate(90 37.625 26.875)" fill="#2E4075"/>
<rect x="37.625" y="10.75" width="2.6875" height="2.6875" transform="rotate(90 37.625 10.75)" fill="#2E4075"/>
<rect x="34.9375" y="8.0625" width="2.6875" height="2.6875" transform="rotate(90 34.9375 8.0625)" fill="#2E4075"/>
<rect x="40.3125" y="13.4375" width="13.4375" height="2.6875" transform="rotate(90 40.3125 13.4375)" fill="#2E4075"/>
<rect x="13.4375" y="18.8125" width="2.6875" height="2.6875" fill="#087343"/>
<rect x="16.125" y="21.5" width="2.6875" height="2.6875" fill="#087343"/>
<rect x="18.8125" y="18.8125" width="2.6875" height="2.6875" fill="#087343"/>
<rect x="21.5" y="16.125" width="2.6875" height="2.6875" fill="#087343"/>
<rect x="24.1875" y="13.4375" width="2.6875" height="2.6875" fill="#087343"/>
</svg>
