<svg width="43" height="43" viewBox="0 0 43 43" fill="none" xmlns="http://www.w3.org/2000/svg">
<rect width="24.1875" height="18.8125" transform="matrix(-1 0 0 1 37.625 18.8125)" fill="#CDD9FD"/>
<rect width="8.0625" height="18.8125" transform="matrix(-1 0 0 1 13.4375 18.8125)" fill="#5C80D1"/>
<rect width="8.0625" height="10.75" transform="matrix(-1 0 0 1 29.5625 26.875)" fill="#2A336B"/>
<rect width="5.375" height="2.6875" transform="matrix(-1 0 0 1 40.3125 16.125)" fill="#C7D5F9"/>
<rect width="2.6875" height="2.6875" transform="matrix(-1 0 0 1 40.3125 18.8125)" fill="#C7D5F9"/>
<rect width="5.375" height="2.6875" transform="matrix(-1 0 0 1 37.625 13.4375)" fill="#C7D5F9"/>
<rect width="5.375" height="2.6875" transform="matrix(-1 0 0 1 34.9375 10.75)" fill="#C7D5F9"/>
<rect width="5.375" height="2.6875" transform="matrix(-1 0 0 1 32.25 8.0625)" fill="#C7D5F9"/>
<rect width="5.375" height="2.6875" transform="matrix(-1 0 0 1 29.5625 5.375)" fill="#C7D5F9"/>
<rect width="10.75" height="2.6875" transform="matrix(-1 0 0 1 24.1875 5.375)" fill="#9CB5FC"/>
<rect width="10.75" height="2.6875" transform="matrix(-1 0 0 1 21.5 8.0625)" fill="#607DCD"/>
<rect width="10.75" height="2.6875" transform="matrix(-1 0 0 1 18.8125 10.75)" fill="#607DCD"/>
<rect width="10.75" height="2.6875" transform="matrix(-1 0 0 1 16.125 13.4375)" fill="#607DCD"/>
<rect width="10.75" height="2.6875" transform="matrix(-1 0 0 1 13.4375 16.125)" fill="#607DCD"/>
<rect width="8.0625" height="2.6875" transform="matrix(-1 0 0 1 10.75 18.8125)" fill="#3951AD"/>
<rect width="2.6875" height="2.6875" transform="matrix(-1 0 0 1 24.1875 8.0625)" fill="#FDECC0"/>
<rect width="2.6875" height="2.6875" transform="matrix(-1 0 0 1 21.5 10.75)" fill="#FDECC0"/>
<rect width="2.6875" height="2.6875" transform="matrix(-1 0 0 1 18.8125 13.4375)" fill="#CBD7FD"/>
<rect width="2.6875" height="2.6875" transform="matrix(-1 0 0 1 26.875 8.0625)" fill="#374C8B"/>
<rect width="2.6875" height="2.6875" transform="matrix(-1 0 0 1 24.1875 10.75)" fill="#374C8B"/>
<rect width="2.6875" height="2.6875" transform="matrix(-1 0 0 1 21.5 13.4375)" fill="#374C8B"/>
<rect width="2.6875" height="2.6875" transform="matrix(-1 0 0 1 18.8125 16.125)" fill="#374C8B"/>
<rect width="2.6875" height="2.6875" transform="matrix(-1 0 0 1 40.3125 21.5)" fill="#2E4075"/>
<rect width="2.6875" height="2.6875" transform="matrix(-1 0 0 1 16.125 18.8125)" fill="#374C8B"/>
<rect width="2.6875" height="2.6875" transform="matrix(-1 0 0 1 29.5625 10.75)" fill="#374C8B"/>
<rect width="2.6875" height="2.6875" transform="matrix(-1 0 0 1 32.25 13.4375)" fill="#7886BA"/>
<rect width="13.4375" height="2.6875" transform="matrix(-1 0 0 1 32.25 16.125)" fill="#CDD9FD"/>
<rect width="8.0625" height="2.6875" transform="matrix(-1 0 0 1 29.5625 13.4375)" fill="#CDD9FD"/>
<rect width="2.6875" height="2.6875" transform="matrix(-1 0 0 1 26.875 10.75)" fill="#CDD9FD"/>
<rect width="2.6875" height="2.6875" transform="matrix(-1 0 0 1 34.9375 16.125)" fill="#7886BA"/>
<rect width="2.6875" height="2.6875" transform="matrix(-1 0 0 1 37.625 18.8125)" fill="#7886BA"/>
<rect width="2.6875" height="2.6875" transform="matrix(-1 0 0 1 16.125 16.125)" fill="#CDD9FD"/>
<rect width="2.6875" height="2.6875" transform="matrix(-1 0 0 1 13.4375 18.8125)" fill="#9AB8FC"/>
<rect width="2.6875" height="5.375" transform="matrix(-1 0 0 1 10.75 32.25)" fill="#9AB8FC"/>
<rect width="2.6875" height="5.375" transform="matrix(-1 0 0 1 16.125 32.25)" fill="#9AB8FC"/>
<rect width="2.6875" height="2.6875" transform="matrix(-1 0 0 1 21.5 34.9375)" fill="#9AB8FC"/>
<rect width="2.6875" height="2.6875" transform="matrix(-1 0 0 1 32.25 34.9375)" fill="#9AB8FC"/>
<rect width="2.6875" height="5.375" transform="matrix(-1 0 0 1 37.625 32.25)" fill="#9AB8FC"/>
<rect width="2.6875" height="5.375" transform="matrix(-1 0 0 1 8.0625 29.5625)" fill="#9AB8FC"/>
<rect width="2.6875" height="8.0625" transform="matrix(-1 0 0 1 16.125 2.6875)" fill="#CBD3FD"/>
<rect width="2.6875" height="10.75" transform="matrix(-1 0 0 1 13.4375 2.6875)" fill="#9BB5FC"/>
<rect width="2.6875" height="10.75" transform="matrix(-1 0 0 1 10.75 2.6875)" fill="#374C8B"/>
<rect width="2.6875" height="2.6875" transform="matrix(-1 0 0 1 13.4375 21.5)" fill="#374C8B"/>
<rect width="2.6875" height="2.6875" transform="matrix(-1 0 0 1 10.75 21.5)" fill="#374C8B"/>
<rect width="2.6875" height="2.6875" transform="matrix(-1 0 0 1 13.4375 24.1875)" fill="#374C8B"/>
<rect width="37.625" height="2.6875" transform="matrix(-1 0 0 1 40.3125 37.625)" fill="#1D7E51"/>
<rect width="2.6875" height="2.6875" transform="matrix(-1 0 0 1 8.0625 34.9375)" fill="#1D7E51"/>
<rect width="2.6875" height="2.6875" transform="matrix(-1 0 0 1 18.8125 34.9375)" fill="#1D7E51"/>
<rect width="2.6875" height="2.6875" transform="matrix(-1 0 0 1 34.9375 34.9375)" fill="#1D7E51"/>
<rect width="2.6875" height="2.6875" transform="matrix(-1 0 0 1 10.75 37.625)" fill="#205B4E"/>
<rect width="2.6875" height="2.6875" transform="matrix(-1 0 0 1 32.25 37.625)" fill="#E7A398"/>
<rect width="2.6875" height="2.6875" transform="matrix(-1 0 0 1 21.5 37.625)" fill="#205B4E"/>
<rect width="8.0625" height="2.6875" transform="matrix(-1 0 0 1 29.5625 37.625)" fill="#DA7463"/>
<rect x="24.1875" y="18.8125" width="2.6875" height="2.6875" fill="#2A336B"/>
</svg>
