<svg width="43" height="43" viewBox="0 0 43 43" fill="none" xmlns="http://www.w3.org/2000/svg">
<path d="M13.4375 8.0625H16.125V10.75H18.8125V13.4375H24.1875V10.75H26.875V8.0625H29.5625V5.375H34.9375V10.75H37.625V13.4375H34.9375V16.125H32.25V18.8125H29.5625V24.1875H32.25V26.875H34.9375V29.5625H37.625V32.25H34.9375V34.9375H32.25V37.625H29.5625V34.9375H26.875V32.25H24.1875V29.5625H18.8125V32.25H16.125V34.9375H13.4375V37.625H10.75V34.9375H8.0625V32.25H5.375V29.5625H8.0625V26.875H10.75V24.1875H13.4375V18.8125H10.75V16.125H8.0625V13.4375H5.375V10.75H8.0625V8.0625H10.75V5.375H13.4375V8.0625Z" fill="#C2000C"/>
<rect x="5.375" y="32.25" width="2.6875" height="2.6875" fill="#770E12"/>
<rect x="10.75" y="16.125" width="2.6875" height="2.6875" fill="#770E12"/>
<rect x="29.5625" y="16.125" width="2.6875" height="2.6875" fill="#770E12"/>
<rect x="13.4375" y="18.8125" width="2.6875" height="2.6875" fill="#770E12"/>
<rect x="8.0625" y="26.875" width="2.6875" height="2.6875" fill="#FF3D48"/>
<rect x="32.25" y="26.875" width="2.6875" height="2.6875" fill="#FF3D48"/>
<rect x="5.375" y="29.5625" width="2.6875" height="2.6875" fill="#770E12"/>
<rect x="10.75" y="24.1875" width="2.6875" height="2.6875" fill="#FF3D48"/>
<rect x="29.5625" y="24.1875" width="2.6875" height="2.6875" fill="#FF3D48"/>
<rect x="8.0625" y="5.375" width="5.375" height="2.6875" fill="#FF666F"/>
<rect x="29.5625" y="5.375" width="5.375" height="2.6875" fill="#FF666F"/>
<rect x="13.4375" y="8.0625" width="2.6875" height="2.6875" fill="#FF3D48"/>
<rect x="16.125" y="10.75" width="2.6875" height="2.6875" fill="#FF3D48"/>
<rect x="18.8125" y="13.4375" width="5.375" height="2.6875" fill="#FF666F"/>
<rect x="26.875" y="8.0625" width="2.6875" height="2.6875" fill="#FF3D48"/>
<rect x="24.1875" y="10.75" width="2.6875" height="2.6875" fill="#FF3D48"/>
<rect x="26.875" y="18.8125" width="2.6875" height="2.6875" fill="#770E12"/>
<rect x="8.0625" y="13.4375" width="2.6875" height="2.6875" fill="#8C0D16"/>
<rect x="32.25" y="13.4375" width="2.6875" height="2.6875" fill="#8C0D16"/>
<rect x="5.375" y="8.0625" width="2.6875" height="5.375" fill="#8C0D16"/>
<rect x="34.9375" y="8.0625" width="2.6875" height="5.375" fill="#8C0D16"/>
<rect x="8.0625" y="32.25" width="2.6875" height="2.6875" fill="#770E12"/>
<rect x="8.0625" y="34.9375" width="5.375" height="2.6875" fill="#53090E"/>
<rect x="13.4375" y="32.25" width="2.6875" height="2.6875" fill="#53090E"/>
<rect x="16.125" y="29.5625" width="2.6875" height="2.6875" fill="#53090E"/>
<rect x="24.1875" y="29.5625" width="2.6875" height="2.6875" fill="#53090E"/>
<rect x="26.875" y="32.25" width="2.6875" height="2.6875" fill="#53090E"/>
<rect x="29.5625" y="34.9375" width="2.6875" height="2.6875" fill="#53090E"/>
<rect x="32.25" y="32.25" width="2.6875" height="5.375" fill="#770E12"/>
<rect x="34.9375" y="29.5625" width="2.6875" height="5.375" fill="#770E12"/>
<rect x="18.8125" y="26.875" width="5.375" height="2.6875" fill="#53090E"/>
<rect x="5.375" y="8.0625" width="8.0625" height="2.6875" fill="#F30517"/>
<rect x="8.0625" y="10.75" width="8.0625" height="2.6875" fill="#F30517"/>
<rect x="10.75" y="13.4375" width="8.0625" height="2.6875" fill="#F30517"/>
<rect x="24.1875" y="13.4375" width="8.0625" height="2.6875" fill="#F30517"/>
<rect x="26.875" y="10.75" width="8.0625" height="2.6875" fill="#F30517"/>
<rect x="29.5625" y="8.0625" width="5.375" height="2.6875" fill="#F30517"/>
<rect x="13.4375" y="16.125" width="16.125" height="2.6875" fill="#F30517"/>
<rect x="16.125" y="18.8125" width="10.75" height="2.6875" fill="#F30517"/>
<rect x="13.4375" y="21.5" width="5.375" height="2.6875" fill="#DC0415"/>
<rect x="24.1875" y="21.5" width="5.375" height="2.6875" fill="#DC0415"/>
<rect x="18.8125" y="21.5" width="5.375" height="2.6875" fill="#D20414"/>
<rect x="16.125" y="18.8125" width="2.6875" height="2.6875" fill="#DC0415"/>
<rect x="24.1875" y="18.8125" width="2.6875" height="2.6875" fill="#DC0415"/>
</svg>
