<svg width="43" height="43" viewBox="0 0 43 43" fill="none" xmlns="http://www.w3.org/2000/svg">
<rect x="10.75" y="32.25" width="8.0625" height="5.375" fill="#C32E23"/>
<rect x="8.0625" y="29.5625" width="8.0625" height="2.6875" fill="#D03125"/>
<rect x="16.125" y="29.5625" width="2.6875" height="5.375" fill="#E2645A"/>
<rect x="18.8125" y="29.5625" width="13.4375" height="2.6875" fill="#DDA655"/>
<rect x="18.8125" y="32.25" width="13.4375" height="2.6875" fill="#F3DFBC"/>
<rect x="21.5" y="10.75" width="13.4375" height="2.6875" fill="#F3DFBC"/>
<rect x="21.5" y="8.0625" width="13.4375" height="2.6875" fill="#DDA655"/>
<rect x="8.0625" y="18.8125" width="16.125" height="2.6875" fill="#DDA655"/>
<rect x="8.0625" y="21.5" width="16.125" height="2.6875" fill="#F3DFBC"/>
<rect x="8.0625" y="29.5625" width="5.375" height="2.6875" fill="#A42318"/>
<rect x="8.0625" y="32.25" width="2.6875" height="2.6875" fill="#A42318"/>
<rect x="10.75" y="26.875" width="8.0625" height="2.6875" fill="#8A1D14"/>
<rect x="18.8125" y="26.875" width="16.125" height="2.6875" fill="#E2645A"/>
<rect x="18.8125" y="34.9375" width="16.125" height="2.6875" fill="#E2645A"/>
<rect x="24.1875" y="16.125" width="8.0625" height="8.0625" fill="#09A75C"/>
<rect x="24.1875" y="16.125" width="8.0625" height="2.6875" fill="#067941"/>
<rect x="29.5625" y="18.8125" width="2.6875" height="2.6875" fill="#078B4A"/>
<rect x="24.1875" y="24.1875" width="8.0625" height="2.6875" fill="#089B53"/>
<rect x="5.375" y="16.125" width="18.8125" height="2.6875" fill="#05613B"/>
<rect x="24.1875" y="18.8125" width="2.6875" height="5.375" fill="#05613B"/>
<rect x="10.75" y="16.125" width="13.4375" height="2.6875" fill="#045232"/>
<rect x="18.8125" y="16.125" width="5.375" height="2.6875" fill="#04492C"/>
<rect x="5.375" y="24.1875" width="18.8125" height="2.6875" fill="#05613B"/>
<rect x="10.75" y="5.375" width="10.75" height="10.75" fill="#AA3402"/>
<rect x="8.0625" y="8.0625" width="2.6875" height="5.375" fill="#832A02"/>
<rect x="18.8125" y="8.0625" width="2.6875" height="5.375" fill="#DF5010"/>
<rect x="21.5" y="5.375" width="16.125" height="2.6875" fill="#CB490F"/>
<rect x="21.5" y="13.4375" width="16.125" height="2.6875" fill="#CB490F"/>
<rect x="10.75" y="5.375" width="10.75" height="2.6875" fill="#832A02"/>
<rect x="10.75" y="8.0625" width="5.375" height="2.6875" fill="#832A02"/>
<rect x="18.8125" y="26.875" width="8.0625" height="2.6875" fill="#DC4338"/>
<rect x="24.1875" y="34.9375" width="5.375" height="2.6875" fill="#DF584D"/>
<rect x="18.8125" y="34.9375" width="5.375" height="2.6875" fill="#DD4B40"/>
<rect x="21.5" y="18.8125" width="2.6875" height="5.375" fill="#D5912F"/>
<rect x="21.5" y="8.0625" width="5.375" height="2.6875" fill="#D5912F"/>
<rect x="18.8125" y="29.5625" width="5.375" height="2.6875" fill="#D5912F"/>
</svg>
