<svg width="43" height="43" viewBox="0 0 43 43" fill="none" xmlns="http://www.w3.org/2000/svg">
<rect x="2.6875" y="10.75" width="37.625" height="26.875" fill="#E96733"/>
<rect x="5.375" y="10.75" width="32.25" height="26.875" fill="#ED6632"/>
<rect x="13.4375" y="5.375" width="2.6875" height="5.375" fill="#86321F"/>
<rect x="16.125" y="2.6875" width="2.6875" height="2.6875" fill="#6D291A"/>
<rect x="18.8125" y="2.6875" width="8.0625" height="2.6875" fill="#BC5D41"/>
<rect x="26.875" y="5.375" width="2.6875" height="5.375" fill="#86321F"/>
<rect x="34.9375" y="10.75" width="5.375" height="5.375" fill="#ED6632"/>
<rect x="5.375" y="10.75" width="10.75" height="10.75" fill="#FFAD77"/>
<rect x="2.6875" y="18.8125" width="5.375" height="2.6875" fill="#FFA361"/>
<rect x="2.6875" y="21.5" width="5.375" height="2.6875" fill="#A12B0B"/>
<rect x="2.6875" y="24.1875" width="5.375" height="2.6875" fill="#C9431B"/>
<rect x="8.0625" y="26.875" width="5.375" height="2.6875" fill="#C9431B"/>
<rect x="13.4375" y="29.5625" width="5.375" height="2.6875" fill="#C9431B"/>
<rect x="24.1875" y="29.5625" width="5.375" height="2.6875" fill="#C9431B"/>
<rect x="29.5625" y="26.875" width="5.375" height="2.6875" fill="#C9431B"/>
<rect x="34.9375" y="24.1875" width="5.375" height="2.6875" fill="#C9431B"/>
<rect x="13.4375" y="10.75" width="16.125" height="13.4375" fill="#FFA361"/>
<rect x="18.8125" y="13.4375" width="10.75" height="13.4375" fill="#FF8442"/>
<rect x="16.125" y="18.8125" width="10.75" height="8.0625" fill="#FF8442"/>
<rect x="34.9375" y="18.8125" width="5.375" height="2.6875" fill="#EE703D"/>
<rect x="34.9375" y="21.5" width="5.375" height="2.6875" fill="#A12B0B"/>
<rect x="8.0625" y="21.5" width="5.375" height="2.6875" fill="#FFA361"/>
<rect x="8.0625" y="24.1875" width="5.375" height="2.6875" fill="#A12B0B"/>
<rect x="29.5625" y="21.5" width="5.375" height="2.6875" fill="#EE703D"/>
<rect x="29.5625" y="24.1875" width="5.375" height="2.6875" fill="#A12B0B"/>
<rect x="24.1875" y="24.1875" width="5.375" height="2.6875" fill="#FF793D"/>
<rect x="24.1875" y="26.875" width="5.375" height="2.6875" fill="#A12B0B"/>
<rect x="13.4375" y="24.1875" width="5.375" height="2.6875" fill="#FF793D"/>
<rect x="13.4375" y="26.875" width="5.375" height="2.6875" fill="#A12B0B"/>
<rect x="18.8125" y="24.1875" width="5.375" height="2.6875" fill="white"/>
<rect x="18.8125" y="26.875" width="2.6875" height="2.6875" fill="#FEB991"/>
<rect x="21.5" y="26.875" width="2.6875" height="2.6875" fill="#FF9F79"/>
<rect x="18.8125" y="29.5625" width="5.375" height="2.6875" fill="#A12B0B"/>
<rect x="2.6875" y="10.75" width="2.6875" height="2.6875" fill="#FFC9AF"/>
<rect x="5.375" y="10.75" width="29.5625" height="2.6875" fill="#FFA361"/>
<rect x="5.375" y="34.9375" width="8.0625" height="2.6875" fill="#BF3B18"/>
<rect x="13.4375" y="34.9375" width="21.5" height="2.6875" fill="#BB4116"/>
<rect x="2.6875" y="13.4375" width="2.6875" height="2.6875" fill="#FFB780"/>
<rect x="2.6875" y="16.125" width="2.6875" height="2.6875" fill="#FFAD77"/>
<rect x="2.6875" y="34.9375" width="2.6875" height="2.6875" fill="#800F00"/>
<rect x="5.375" y="34.9375" width="2.6875" height="2.6875" fill="#A12B0B"/>
<rect x="2.6875" y="32.25" width="2.6875" height="2.6875" fill="#C45130"/>
<rect x="37.625" y="34.9375" width="2.6875" height="2.6875" fill="#800F00"/>
<rect x="34.9375" y="34.9375" width="2.6875" height="2.6875" fill="#A12B0B"/>
<rect x="37.625" y="32.25" width="2.6875" height="2.6875" fill="#841702"/>
<rect x="37.625" y="29.5625" width="2.6875" height="2.6875" fill="#BC4726"/>
<rect x="37.625" y="26.875" width="2.6875" height="2.6875" fill="#BC4726"/>
<rect x="37.625" y="24.1875" width="2.6875" height="2.6875" fill="#BC4726"/>
<rect x="37.625" y="10.75" width="2.6875" height="2.6875" fill="#EE6F3C"/>
<rect x="34.9375" y="10.75" width="2.6875" height="2.6875" fill="#FFA361"/>
<rect x="37.625" y="13.4375" width="2.6875" height="5.375" fill="#EE703D"/>
<rect x="24.1875" y="2.6875" width="2.6875" height="2.6875" fill="#6D291A"/>
<rect x="29.5625" y="10.75" width="8.0625" height="5.375" fill="#F76C2E"/>
<rect x="26.875" y="10.75" width="2.6875" height="2.6875" fill="#FF793D"/>
<rect x="24.1875" y="10.75" width="2.6875" height="2.6875" fill="#FF9250"/>
<rect x="5.375" y="10.75" width="2.6875" height="2.6875" fill="#FFAF7A"/>
<rect x="2.6875" y="10.75" width="37.625" height="2.6875" fill="white" fill-opacity="0.2"/>
<rect x="2.6875" y="18.8125" width="5.375" height="2.6875" fill="white" fill-opacity="0.2"/>
<rect x="8.0625" y="21.5" width="5.375" height="2.6875" fill="white" fill-opacity="0.2"/>
<rect x="13.4375" y="24.1875" width="5.375" height="2.6875" fill="white" fill-opacity="0.2"/>
<rect x="29.5625" y="13.4375" width="2.6875" height="2.6875" fill="#FF8442"/>
<rect x="13.4375" y="21.5" width="2.6875" height="2.6875" fill="#FF8442"/>
</svg>
