<svg width="43" height="43" viewBox="0 0 43 43" fill="none" xmlns="http://www.w3.org/2000/svg">
<path d="M34.9375 10.75H37.625V13.4375H40.3125V16.125H37.625V18.8125H34.9375V21.5H32.25V24.1875H29.5625V26.875H26.875V29.5625H24.1875V32.25H21.5V34.9375H18.8125V37.625H13.4375V34.9375H10.75V32.25H8.0625V29.5625H5.375V26.875H2.6875V24.1875H5.375V21.5H8.0625V18.8125H10.75V21.5H13.4375V24.1875H18.8125V21.5H21.5V18.8125H24.1875V16.125H26.875V13.4375H29.5625V10.75H32.25V8.0625H34.9375V10.75Z" fill="#24B958"/>
<rect x="8.0625" y="18.8125" width="2.6875" height="2.6875" fill="#77E49D"/>
<rect x="10.75" y="21.5" width="2.6875" height="2.6875" fill="#77E49D"/>
<rect x="13.4375" y="24.1875" width="2.6875" height="2.6875" fill="#77E49D"/>
<rect x="16.125" y="24.1875" width="2.6875" height="2.6875" fill="#77E49D"/>
<rect x="18.8125" y="21.5" width="2.6875" height="2.6875" fill="#77E49D"/>
<rect x="21.5" y="18.8125" width="2.6875" height="2.6875" fill="#77E49D"/>
<rect x="24.1875" y="16.125" width="2.6875" height="2.6875" fill="#77E49D"/>
<rect x="26.875" y="13.4375" width="2.6875" height="2.6875" fill="#77E49D"/>
<rect x="29.5625" y="10.75" width="2.6875" height="2.6875" fill="#77E49D"/>
<rect x="32.25" y="8.0625" width="2.6875" height="2.6875" fill="#77E49D"/>
<rect x="34.9375" y="8.0625" width="2.6875" height="5.375" fill="#77E49D"/>
<rect x="37.625" y="10.75" width="2.6875" height="5.375" fill="#1B8D43"/>
<rect x="34.9375" y="16.125" width="2.6875" height="2.6875" fill="#1B8D43"/>
<rect x="32.25" y="18.8125" width="2.6875" height="2.6875" fill="#1B8D43"/>
<rect x="29.5625" y="21.5" width="2.6875" height="2.6875" fill="#1B8D43"/>
<rect x="26.875" y="24.1875" width="2.6875" height="2.6875" fill="#1B8D43"/>
<rect x="24.1875" y="26.875" width="2.6875" height="2.6875" fill="#1B8D43"/>
<rect x="21.5" y="29.5625" width="2.6875" height="2.6875" fill="#13622F"/>
<rect x="18.8125" y="32.25" width="2.6875" height="2.6875" fill="#13622F"/>
<rect x="10.75" y="32.25" width="2.6875" height="2.6875" fill="#13622F"/>
<rect x="8.0625" y="21.5" width="2.6875" height="2.6875" fill="#4ACA5B"/>
<rect x="10.75" y="24.1875" width="2.6875" height="2.6875" fill="#4ACA5B"/>
<rect x="18.8125" y="24.1875" width="2.6875" height="2.6875" fill="#4ACA5B"/>
<rect x="21.5" y="21.5" width="2.6875" height="2.6875" fill="#4ACA5B"/>
<rect x="24.1875" y="18.8125" width="2.6875" height="2.6875" fill="#4ACA5B"/>
<rect x="26.875" y="16.125" width="2.6875" height="2.6875" fill="#4ACA5B"/>
<rect x="29.5625" y="13.4375" width="2.6875" height="2.6875" fill="#4ACA5B"/>
<rect x="32.25" y="10.75" width="2.6875" height="2.6875" fill="#4ACA5B"/>
<rect x="13.4375" y="26.875" width="5.375" height="2.6875" fill="#4ACA5B"/>
<rect x="13.4375" y="32.25" width="5.375" height="2.6875" fill="#1D9547"/>
<rect x="8.0625" y="29.5625" width="2.6875" height="2.6875" fill="#13622F"/>
<rect x="5.375" y="26.875" width="2.6875" height="2.6875" fill="#1B8D43"/>
<rect x="2.6875" y="21.5" width="2.6875" height="5.375" fill="#1B8D43"/>
<rect x="13.4375" y="34.9375" width="5.375" height="2.6875" fill="#0D4420"/>
<rect x="5.375" y="18.8125" width="2.6875" height="5.375" fill="#77E49D"/>
</svg>
