<svg width="43" height="43" viewBox="0 0 43 43" fill="none" xmlns="http://www.w3.org/2000/svg">
<path d="M26.875 8.0625H32.25V10.75H34.9375V16.125H37.625V26.875H34.9375V32.25H32.25V34.9375H26.875V37.625H16.125V34.9375H10.75V32.25H8.0625V26.875H5.375V16.125H8.0625V10.75H10.75V8.0625H16.125V5.375H26.875V8.0625Z" fill="#B452FF"/>
<rect x="13.4375" y="5.375" width="2.6875" height="2.6875" fill="#B365EE" fill-opacity="0.7"/>
<rect x="5.375" y="13.4375" width="2.6875" height="2.6875" fill="#B365EE" fill-opacity="0.7"/>
<rect x="5.375" y="26.875" width="2.6875" height="2.6875" fill="#B049FF" fill-opacity="0.7"/>
<rect x="13.4375" y="34.9375" width="2.6875" height="2.6875" fill="#B049FF" fill-opacity="0.7"/>
<rect x="34.9375" y="26.875" width="2.6875" height="2.6875" fill="#B049FF" fill-opacity="0.7"/>
<rect x="26.875" y="34.9375" width="2.6875" height="2.6875" fill="#B049FF" fill-opacity="0.7"/>
<rect x="34.9375" y="13.4375" width="2.6875" height="2.6875" fill="#B365EE" fill-opacity="0.7"/>
<rect x="26.875" y="5.375" width="2.6875" height="2.6875" fill="#B365EE" fill-opacity="0.7"/>
<rect x="16.125" y="5.375" width="10.75" height="2.6875" fill="#9B35E9"/>
<rect x="16.125" y="34.9375" width="10.75" height="2.6875" fill="#7F00E0"/>
<rect x="10.75" y="8.0625" width="5.375" height="2.6875" fill="#9B35E9"/>
<rect x="5.375" y="8.0625" width="8.0625" height="2.6875" fill="#9B35E9"/>
<rect x="29.5625" y="8.0625" width="8.0625" height="2.6875" fill="#9B35E9"/>
<rect x="34.9375" y="8.0625" width="2.6875" height="2.6875" fill="#6612A5"/>
<rect x="5.375" y="8.0625" width="2.6875" height="2.6875" fill="#6612A5"/>
<rect x="5.375" y="5.375" width="5.375" height="2.6875" fill="#9B35E9"/>
<rect x="32.25" y="5.375" width="5.375" height="2.6875" fill="#9B35E9"/>
<rect x="5.375" y="2.6875" width="2.6875" height="2.6875" fill="#B24DFF"/>
<rect x="34.9375" y="2.6875" width="2.6875" height="2.6875" fill="#B24DFF"/>
<rect x="26.875" y="8.0625" width="5.375" height="2.6875" fill="#9B35E9"/>
<rect x="10.75" y="32.25" width="2.6875" height="2.6875" fill="#7F00E0"/>
<rect x="29.5625" y="32.25" width="2.6875" height="2.6875" fill="#7F00E0"/>
<rect x="10.75" y="10.75" width="2.6875" height="2.6875" transform="rotate(90 10.75 10.75)" fill="#9B35E9"/>
<rect x="10.75" y="26.875" width="2.6875" height="2.6875" transform="rotate(90 10.75 26.875)" fill="#9915FF"/>
<rect x="34.9375" y="26.875" width="2.6875" height="2.6875" transform="rotate(90 34.9375 26.875)" fill="#9915FF"/>
<rect x="34.9375" y="10.75" width="2.6875" height="2.6875" transform="rotate(90 34.9375 10.75)" fill="#9B35E9"/>
<rect x="10.75" y="29.5625" width="2.6875" height="2.6875" transform="rotate(90 10.75 29.5625)" fill="#7F00E0"/>
<rect x="34.9375" y="29.5625" width="2.6875" height="2.6875" transform="rotate(90 34.9375 29.5625)" fill="#7F00E0"/>
<rect x="8.0625" y="16.125" width="10.75" height="2.6875" transform="rotate(90 8.0625 16.125)" fill="#B049FF"/>
<rect x="37.625" y="16.125" width="10.75" height="2.6875" transform="rotate(90 37.625 16.125)" fill="#B049FF"/>
<rect x="13.4375" y="32.25" width="2.6875" height="2.6875" fill="#9E1FFF"/>
<rect x="13.4375" y="29.5625" width="16.125" height="2.6875" fill="#9E1FFF"/>
<rect x="16.125" y="32.25" width="10.75" height="2.6875" fill="#9E1FFF"/>
<rect x="26.875" y="32.25" width="2.6875" height="2.6875" fill="#9E1FFF"/>
<rect x="10.75" y="29.5625" width="2.6875" height="2.6875" fill="#9E1FFF"/>
<rect x="29.5625" y="29.5625" width="2.6875" height="2.6875" fill="#9E1FFF"/>
<rect x="13.4375" y="10.75" width="16.125" height="2.6875" fill="#C57AFF"/>
<rect x="16.125" y="13.4375" width="10.75" height="2.6875" fill="#C57AFF"/>
<rect x="5.375" y="18.8125" width="2.6875" height="5.375" fill="#B365EE"/>
<rect x="34.9375" y="18.8125" width="2.6875" height="5.375" fill="#B365EE"/>
<rect x="5.375" y="16.125" width="2.6875" height="2.6875" fill="#B365EE"/>
<rect x="34.9375" y="16.125" width="2.6875" height="2.6875" fill="#B365EE"/>
<rect x="8.0625" y="13.4375" width="2.6875" height="2.6875" fill="#B365EE"/>
<rect x="32.25" y="13.4375" width="2.6875" height="2.6875" fill="#B365EE"/>
<rect x="18.8125" y="10.75" width="5.375" height="2.6875" fill="#D8A5FF"/>
<rect x="16.125" y="8.0625" width="10.75" height="2.6875" fill="#C57AFF"/>
<rect x="8.0625" y="24.1875" width="2.6875" height="2.6875" transform="rotate(90 8.0625 24.1875)" fill="#9E1FFF"/>
<rect x="8.0625" y="21.5" width="2.6875" height="2.6875" transform="rotate(90 8.0625 21.5)" fill="#9E1FFF"/>
<rect x="37.625" y="24.1875" width="2.6875" height="2.6875" transform="rotate(90 37.625 24.1875)" fill="#9E1FFF"/>
<rect x="37.625" y="21.5" width="2.6875" height="2.6875" transform="rotate(90 37.625 21.5)" fill="#9E1FFF"/>
<rect x="16.125" y="29.5625" width="10.75" height="2.6875" fill="#301447"/>
<rect x="13.4375" y="26.875" width="2.6875" height="2.6875" fill="#301447"/>
<rect x="26.875" y="26.875" width="2.6875" height="2.6875" fill="#301447"/>
<rect x="13.4375" y="16.125" width="2.6875" height="2.6875" fill="#301447"/>
<rect x="16.125" y="18.8125" width="2.6875" height="2.6875" fill="#301447"/>
<rect x="10.75" y="13.4375" width="2.6875" height="2.6875" fill="#301447"/>
<rect width="2.6875" height="2.6875" transform="matrix(-1 0 0 1 29.5625 16.125)" fill="#301447"/>
<rect width="5.375" height="2.6875" transform="matrix(-1 0 0 1 29.5625 18.8125)" fill="#301447"/>
<rect width="2.6875" height="2.6875" transform="matrix(-1 0 0 1 32.25 13.4375)" fill="#301447"/>
<rect x="13.4375" y="18.8125" width="2.6875" height="5.375" fill="#301447"/>
<rect x="26.875" y="18.8125" width="2.6875" height="5.375" fill="#301447"/>
</svg>
