<svg width="43" height="43" viewBox="0 0 43 43" fill="none" xmlns="http://www.w3.org/2000/svg">
<rect x="8.0625" y="10.75" width="8.0625" height="24.1875" fill="white"/>
<rect x="24.1875" y="10.75" width="8.0625" height="24.1875" fill="white"/>
<rect x="10.75" y="10.75" width="2.6875" height="24.1875" fill="white"/>
<rect x="26.875" y="10.75" width="2.6875" height="24.1875" fill="white"/>
<rect x="16.125" y="13.4375" width="2.6875" height="18.8125" fill="white"/>
<rect x="32.25" y="13.4375" width="2.6875" height="18.8125" fill="white"/>
<rect x="5.375" y="13.4375" width="8.0625" height="18.8125" fill="white"/>
<rect x="21.5" y="13.4375" width="8.0625" height="18.8125" fill="white"/>
<rect x="8.0625" y="26.875" width="5.375" height="2.6875" fill="#B88B00"/>
<rect x="24.1875" y="26.875" width="5.375" height="2.6875" fill="#B88B00"/>
<rect x="8.0625" y="16.125" width="5.375" height="2.6875" fill="#642D06"/>
<rect x="24.1875" y="16.125" width="5.375" height="2.6875" fill="#642D06"/>
<rect x="13.4375" y="18.8125" width="2.6875" height="8.0625" fill="#B88B00"/>
<rect x="29.5625" y="18.8125" width="2.6875" height="8.0625" fill="#B88B00"/>
<rect x="5.375" y="18.8125" width="2.6875" height="8.0625" fill="#A36C00"/>
<rect x="21.5" y="18.8125" width="2.6875" height="8.0625" fill="#A36C00"/>
<rect x="8.0625" y="18.8125" width="5.375" height="8.0625" fill="#2E0802"/>
<rect x="24.1875" y="18.8125" width="5.375" height="8.0625" fill="#2E0802"/>
<rect x="8.0625" y="18.8125" width="2.6875" height="2.6875" fill="#FDFCF9"/>
<rect x="24.1875" y="18.8125" width="2.6875" height="2.6875" fill="#FDFCF9"/>
<rect x="13.4375" y="18.8125" width="2.6875" height="2.6875" fill="#642D06"/>
<rect x="29.5625" y="18.8125" width="2.6875" height="2.6875" fill="#642D06"/>
<rect x="5.375" y="18.8125" width="2.6875" height="2.6875" fill="#642D06"/>
<rect x="21.5" y="18.8125" width="2.6875" height="2.6875" fill="#642D06"/>
<rect x="5.375" y="21.5" width="2.6875" height="2.6875" fill="#6A3F15"/>
<rect x="21.5" y="21.5" width="2.6875" height="2.6875" fill="#6A3F15"/>
<rect x="13.4375" y="21.5" width="2.6875" height="2.6875" fill="#A37A29"/>
<rect x="29.5625" y="21.5" width="2.6875" height="2.6875" fill="#A37A29"/>
</svg>
