<svg width="43" height="43" viewBox="0 0 43 43" fill="none" xmlns="http://www.w3.org/2000/svg">
<rect x="16.125" y="5.375" width="10.75" height="2.6875" fill="#FF9E49"/>
<rect x="16.125" y="34.9375" width="10.75" height="2.6875" fill="#EE6F0E"/>
<rect x="10.75" y="8.0625" width="5.375" height="2.6875" fill="#FF9E49"/>
<rect x="26.875" y="8.0625" width="5.375" height="2.6875" fill="#FF9E49"/>
<rect x="10.75" y="32.25" width="5.375" height="2.6875" fill="#EE6F0E"/>
<rect x="10.75" y="10.75" width="2.6875" height="2.6875" transform="rotate(90 10.75 10.75)" fill="#FF9E49"/>
<rect x="10.75" y="13.4375" width="2.6875" height="2.6875" transform="rotate(90 10.75 13.4375)" fill="#FB820E"/>
<rect x="10.75" y="26.875" width="2.6875" height="2.6875" transform="rotate(90 10.75 26.875)" fill="#FF9E49"/>
<rect x="34.9375" y="10.75" width="2.6875" height="2.6875" transform="rotate(90 34.9375 10.75)" fill="#FF9E49"/>
<rect x="32.25" y="10.75" width="2.6875" height="5.375" transform="rotate(90 32.25 10.75)" fill="#FFF851"/>
<rect x="26.875" y="13.4375" width="2.6875" height="2.6875" transform="rotate(90 26.875 13.4375)" fill="#FF9E49"/>
<rect x="24.1875" y="16.125" width="8.0625" height="2.6875" transform="rotate(90 24.1875 16.125)" fill="#FF9E49"/>
<rect x="10.75" y="29.5625" width="2.6875" height="2.6875" transform="rotate(90 10.75 29.5625)" fill="#EE6F0E"/>
<rect x="8.0625" y="16.125" width="10.75" height="2.6875" transform="rotate(90 8.0625 16.125)" fill="#FB820E"/>
<rect x="8.0625" y="16.125" width="2.6875" height="10.75" fill="#FFF851"/>
<rect x="13.4375" y="29.5625" width="16.125" height="2.6875" fill="#FFF851"/>
<rect x="10.75" y="10.75" width="10.75" height="18.8125" fill="#FFF851"/>
<rect x="16.125" y="32.25" width="10.75" height="2.6875" fill="#FFF851"/>
<rect x="26.875" y="32.25" width="5.375" height="2.6875" fill="#EE6F0E"/>
<rect x="10.75" y="26.875" width="2.6875" height="5.375" fill="#FFF851"/>
<rect x="21.5" y="10.75" width="5.375" height="2.6875" fill="#FFF851"/>
<rect x="21.5" y="13.4375" width="2.6875" height="2.6875" fill="#FFF851"/>
<rect x="32.25" y="29.5625" width="2.6875" height="2.6875" fill="#EE6F0E"/>
<rect x="24.1875" y="8.0625" width="2.6875" height="2.6875" fill="white"/>
<rect x="29.5625" y="10.75" width="2.6875" height="2.6875" fill="white"/>
<rect x="16.125" y="8.0625" width="8.0625" height="2.6875" fill="#FFF851"/>
<rect x="8.0625" y="24.1875" width="2.6875" height="2.6875" transform="rotate(90 8.0625 24.1875)" fill="#EE6F0E"/>
<rect x="21.5" y="13.4375" width="2.6875" height="2.6875" fill="white"/>
<rect x="29.5625" y="29.5625" width="2.6875" height="2.6875" fill="white"/>
<rect x="24.1875" y="32.25" width="2.6875" height="2.6875" fill="white"/>
<rect x="21.5" y="26.875" width="2.6875" height="2.6875" fill="white"/>
<rect x="21.5" y="24.1875" width="2.6875" height="2.6875" fill="white"/>
<rect x="18.8125" y="16.125" width="2.6875" height="10.75" fill="white"/>
<rect x="16.125" y="18.8125" width="2.6875" height="5.375" fill="white"/>
<rect x="8.0625" y="18.8125" width="5.375" height="5.375" fill="#FFC33C"/>
<rect x="10.75" y="13.4375" width="5.375" height="5.375" fill="#FFC33C"/>
<rect x="10.75" y="24.1875" width="5.375" height="5.375" fill="#FFC33C"/>
<rect x="16.125" y="10.75" width="2.6875" height="2.6875" fill="#FFC33C"/>
<rect x="16.125" y="29.5625" width="2.6875" height="2.6875" fill="#FFC33C"/>
<rect x="18.8125" y="29.5625" width="2.6875" height="2.6875" fill="#FF9207"/>
<rect x="21.5" y="10.75" width="2.6875" height="2.6875" fill="#FF9207"/>
<rect x="10.75" y="21.5" width="2.6875" height="2.6875" fill="#FF9207"/>
<rect x="24.1875" y="21.5" width="5.375" height="2.6875" transform="rotate(90 24.1875 21.5)" fill="#FB820E"/>
<rect x="26.875" y="26.875" width="2.6875" height="2.6875" transform="rotate(90 26.875 26.875)" fill="#EE6F0E"/>
</svg>
