<svg width="43" height="43" viewBox="0 0 43 43" fill="none" xmlns="http://www.w3.org/2000/svg">
<rect width="2.6875" height="2.6875" transform="matrix(-1 0 0 1 37.625 32.25)" fill="#195C25"/>
<rect width="13.4375" height="2.6875" transform="matrix(-1 0 0 1 32.25 29.5625)" fill="#195C25"/>
<rect width="10.75" height="21.5" transform="matrix(-1 0 0 1 26.875 8.0625)" fill="#84EF36"/>
<rect width="5.375" height="16.125" transform="matrix(-1 0 0 1 32.25 13.4375)" fill="#68C938"/>
<rect width="5.375" height="13.4375" transform="matrix(-1 0 0 1 16.125 8.0625)" fill="#68C938"/>
<rect width="2.6875" height="2.6875" transform="matrix(-1 0 0 1 32.25 26.875)" fill="#195C25"/>
<rect width="2.6875" height="10.75" transform="matrix(-1 0 0 1 29.5625 18.8125)" fill="#44992F"/>
<rect width="2.6875" height="5.375" transform="matrix(-1 0 0 1 29.5625 24.1875)" fill="#327123"/>
<rect width="5.375" height="2.6875" transform="matrix(-1 0 0 1 34.9375 32.25)" fill="#44992F"/>
<rect width="2.6875" height="2.6875" transform="matrix(-1 0 0 1 26.875 16.125)" fill="#3E8C2B"/>
<rect width="2.6875" height="2.6875" transform="matrix(-1 0 0 1 8.0625 10.75)" fill="#327123"/>
<rect width="5.375" height="2.6875" transform="matrix(-1 0 0 1 24.1875 13.4375)" fill="#3E8C2B"/>
<rect width="10.75" height="2.6875" transform="matrix(-1 0 0 1 18.8125 10.75)" fill="#44992F"/>
<rect width="2.6875" height="2.6875" transform="matrix(-1 0 0 1 32.25 13.4375)" fill="#44992F"/>
<rect width="2.6875" height="2.6875" transform="matrix(-1 0 0 1 29.5625 10.75)" fill="#44992F"/>
<rect width="5.375" height="2.6875" transform="matrix(-1 0 0 1 26.875 8.0625)" fill="#44992F"/>
<rect width="5.375" height="2.6875" transform="matrix(-1 0 0 1 10.75 8.0625)" fill="#44992F"/>
<rect width="2.6875" height="2.6875" transform="matrix(-1 0 0 1 24.1875 16.125)" fill="#55BF3B"/>
<rect width="2.6875" height="2.6875" transform="matrix(-1 0 0 1 26.875 18.8125)" fill="#55BF3B"/>
<rect width="5.375" height="2.6875" transform="matrix(-1 0 0 1 10.75 13.4375)" fill="#195C25"/>
<rect width="2.6875" height="2.6875" transform="matrix(4.37114e-08 1 1 -4.37114e-08 10.75 18.8125)" fill="#195C25"/>
<rect width="5.375" height="2.6875" transform="matrix(4.37114e-08 1 1 -4.37114e-08 13.4375 21.5)" fill="#195C25"/>
<rect width="2.6875" height="2.6875" transform="matrix(-1 0 0 1 5.375 10.75)" fill="#195C25"/>
<rect width="2.6875" height="2.6875" transform="matrix(-1 0 0 1 18.8125 26.875)" fill="#195C25"/>
<rect width="10.75" height="2.6875" transform="matrix(-1 0 0 1 21.5 5.375)" fill="#44992F"/>
<rect width="2.6875" height="10.75" transform="matrix(-1 0 0 1 34.9375 16.125)" fill="#44992F"/>
<rect width="5.375" height="2.6875" transform="matrix(-1 0 0 1 34.9375 34.9375)" fill="#195C25"/>
<rect width="2.6875" height="2.6875" transform="matrix(-1 0 0 1 29.5625 32.25)" fill="#195C25"/>
<rect width="2.6875" height="2.6875" transform="matrix(-1 0 0 1 26.875 13.4375)" fill="#E2FCC6"/>
<rect width="2.6875" height="2.6875" transform="matrix(-1 0 0 1 21.5 16.125)" fill="#E2FCC6"/>
<rect width="2.6875" height="2.6875" transform="matrix(-1 0 0 1 24.1875 10.75)" fill="#CCFA9C"/>
<rect width="2.6875" height="2.6875" transform="matrix(-1 0 0 1 24.1875 18.8125)" fill="#CCFA9C"/>
<rect width="2.6875" height="2.6875" transform="matrix(-1 0 0 1 21.5 10.75)" fill="#A4DE87"/>
<rect width="2.6875" height="2.6875" transform="matrix(-1 0 0 1 26.875 21.5)" fill="#A4DE87"/>
<rect width="2.6875" height="2.6875" transform="matrix(-1 0 0 1 29.5625 16.125)" fill="#A4DE87"/>
<rect width="8.0625" height="2.6875" transform="matrix(-1 0 0 1 26.875 26.875)" fill="#3E8C2B"/>
<rect width="2.6875" height="5.375" transform="matrix(-1 0 0 1 18.8125 21.5)" fill="#3E8C2B"/>
<rect width="2.6875" height="2.6875" transform="matrix(4.37114e-08 -1 -1 -4.37114e-08 10.75 10.75)" fill="#4BA834"/>
<rect width="2.6875" height="5.375" transform="matrix(-1 0 0 1 32.25 21.5)" fill="#4BA834"/>
<rect width="2.6875" height="8.0625" transform="matrix(4.37114e-08 -1 -1 -4.37114e-08 26.875 26.875)" fill="#4BA834"/>
<rect width="2.6875" height="2.6875" transform="matrix(4.37114e-08 -1 -1 -4.37114e-08 21.5 24.1875)" fill="#4BA834"/>
<rect width="2.6875" height="2.6875" transform="matrix(4.37114e-08 -1 -1 -4.37114e-08 18.8125 21.5)" fill="#4BA834"/>
<rect width="2.6875" height="2.6875" transform="matrix(4.37114e-08 -1 -1 -4.37114e-08 16.125 18.8125)" fill="#4BA834"/>
<rect width="2.6875" height="2.6875" transform="matrix(-1 0 0 1 16.125 18.8125)" fill="#3E8C2B"/>
<rect width="2.6875" height="2.6875" transform="matrix(-1 0 0 1 13.4375 13.4375)" fill="#3E8C2B"/>
<rect width="2.6875" height="2.6875" transform="matrix(-1 0 0 1 10.75 13.4375)" fill="#327123"/>
<rect width="2.6875" height="2.6875" transform="matrix(-1 0 0 1 13.4375 16.125)" fill="#327123"/>
</svg>
