<svg width="43" height="43" viewBox="0 0 43 43" fill="none" xmlns="http://www.w3.org/2000/svg">
<rect x="13.4375" y="29.5625" width="16.125" height="2.6875" fill="#00C24B"/>
<rect x="24.1875" y="2.6875" width="2.6875" height="2.6875" fill="#543109"/>
<rect x="21.5" y="2.6875" width="2.6875" height="2.6875" fill="#7F5D0F"/>
<rect x="21.5" y="5.375" width="2.6875" height="2.6875" fill="#764F02"/>
<rect x="21.5" y="8.0625" width="2.6875" height="2.6875" fill="#543906"/>
<rect x="18.8125" y="8.0625" width="2.6875" height="2.6875" fill="#763C02"/>
<rect x="18.8125" y="10.75" width="2.6875" height="2.6875" fill="#543906"/>
<rect x="13.4375" y="8.0625" width="5.375" height="2.6875" fill="#0D6E34"/>
<rect x="10.75" y="10.75" width="2.6875" height="2.6875" fill="#13B34E"/>
<rect x="8.0625" y="10.75" width="2.6875" height="2.6875" fill="#0B7031"/>
<rect x="29.5625" y="10.75" width="5.375" height="2.6875" fill="#0D8C3D"/>
<rect x="24.1875" y="8.0625" width="5.375" height="2.6875" fill="#0D8C3D"/>
<rect x="5.375" y="13.4375" width="2.6875" height="8.0625" fill="#0D8C3D"/>
<rect x="5.375" y="21.5" width="2.6875" height="5.375" fill="#0E7738"/>
<rect x="8.0625" y="26.875" width="2.6875" height="5.375" fill="#0E7738"/>
<rect x="32.25" y="29.5625" width="2.6875" height="2.6875" fill="#095325"/>
<rect x="34.9375" y="18.8125" width="2.6875" height="8.0625" fill="#0E7739"/>
<rect x="34.9375" y="13.4375" width="2.6875" height="5.375" fill="#0D8C3D"/>
<rect x="10.75" y="32.25" width="2.6875" height="2.6875" fill="#0B5B2B"/>
<rect x="29.5625" y="32.25" width="2.6875" height="2.6875" fill="#095325"/>
<rect x="13.4375" y="34.9375" width="2.6875" height="2.6875" fill="#095325"/>
<rect x="24.1875" y="34.9375" width="5.375" height="2.6875" fill="#095325"/>
<rect x="16.125" y="34.9375" width="8.0625" height="2.6875" fill="#0E7739"/>
<rect x="13.4375" y="10.75" width="2.6875" height="2.6875" fill="#85FFB5"/>
<rect x="16.125" y="13.4375" width="8.0625" height="2.6875" fill="#A8FFCA"/>
<rect x="21.5" y="10.75" width="2.6875" height="2.6875" fill="#129B4A"/>
<rect x="16.125" y="10.75" width="2.6875" height="2.6875" fill="#00C24B"/>
<rect x="13.4375" y="13.4375" width="2.6875" height="2.6875" fill="#75FFA9"/>
<rect x="24.1875" y="13.4375" width="2.6875" height="2.6875" fill="#75FFA9"/>
<rect x="24.1875" y="10.75" width="2.6875" height="2.6875" fill="#1BD564"/>
<rect x="26.875" y="10.75" width="2.6875" height="2.6875" fill="#00C24B"/>
<rect x="29.5625" y="13.4375" width="2.6875" height="2.6875" fill="#00C24B"/>
<rect x="32.25" y="16.125" width="2.6875" height="2.6875" fill="#00C24B"/>
<rect x="29.5625" y="18.8125" width="5.375" height="5.375" fill="#05F35E"/>
<rect x="26.875" y="16.125" width="2.6875" height="5.375" fill="#05F35E"/>
<rect x="21.5" y="18.8125" width="8.0625" height="10.75" fill="#05F35E"/>
<rect x="16.125" y="18.8125" width="2.6875" height="2.6875" fill="#05F35E"/>
<rect x="10.75" y="18.8125" width="10.75" height="10.75" fill="#05F35E"/>
<rect x="10.75" y="18.8125" width="2.6875" height="2.6875" fill="#05F35E"/>
<rect x="32.25" y="21.5" width="2.6875" height="5.375" fill="#00C24B"/>
<rect x="32.25" y="26.875" width="2.6875" height="2.6875" fill="#00C24B"/>
<rect x="26.875" y="29.5625" width="2.6875" height="2.6875" fill="#00C24B"/>
<rect x="21.5" y="29.5625" width="5.375" height="2.6875" fill="#00C24B"/>
<rect x="13.4375" y="26.875" width="16.125" height="2.6875" fill="#00C24B"/>
<rect x="26.875" y="32.25" width="2.6875" height="2.6875" fill="#129B4A"/>
<rect x="24.1875" y="32.25" width="2.6875" height="2.6875" fill="#00C24B"/>
<rect x="18.8125" y="32.25" width="5.375" height="2.6875" fill="#129B4A"/>
<rect x="16.125" y="32.25" width="2.6875" height="2.6875" fill="#00C24B"/>
<rect x="13.4375" y="32.25" width="2.6875" height="2.6875" fill="#129B4A"/>
<rect x="10.75" y="29.5625" width="2.6875" height="2.6875" fill="#129B4A"/>
<rect x="10.75" y="24.1875" width="2.6875" height="5.375" fill="#00C24B"/>
<rect x="8.0625" y="13.4375" width="2.6875" height="13.4375" fill="#00C24B"/>
<rect x="10.75" y="13.4375" width="2.6875" height="5.375" fill="#3DFF89"/>
<rect x="13.4375" y="16.125" width="16.125" height="5.375" fill="#3DFF89"/>
<rect x="26.875" y="13.4375" width="2.6875" height="2.6875" fill="#3DFF89"/>
<rect x="29.5625" y="16.125" width="2.6875" height="2.6875" fill="#3DFF89"/>
<rect x="29.5625" y="21.5" width="2.6875" height="5.375" fill="#05F35E"/>
<rect x="13.4375" y="16.125" width="5.375" height="2.6875" fill="#3DFF89"/>
<rect x="21.5" y="16.125" width="5.375" height="2.6875" fill="#85FFB5"/>
<rect x="29.5625" y="29.5625" width="2.6875" height="2.6875" fill="#129B4A"/>
<rect x="32.25" y="13.4375" width="2.6875" height="2.6875" fill="#00C24B"/>
<rect x="29.5625" y="24.1875" width="2.6875" height="5.375" fill="#00C24B"/>
</svg>
