<svg width="43" height="43" viewBox="0 0 43 43" fill="none" xmlns="http://www.w3.org/2000/svg">
<rect x="13.4375" y="29.5625" width="16.125" height="2.6875" fill="#C2000C"/>
<rect x="24.1875" y="2.6875" width="2.6875" height="2.6875" fill="#543109"/>
<rect x="21.5" y="2.6875" width="2.6875" height="2.6875" fill="#7F5D0F"/>
<rect x="21.5" y="5.375" width="2.6875" height="2.6875" fill="#764F02"/>
<rect x="21.5" y="8.0625" width="2.6875" height="2.6875" fill="#543906"/>
<rect x="18.8125" y="8.0625" width="2.6875" height="2.6875" fill="#763C02"/>
<rect x="18.8125" y="10.75" width="2.6875" height="2.6875" fill="#543906"/>
<rect x="13.4375" y="8.0625" width="5.375" height="2.6875" fill="#6E0D11"/>
<rect x="10.75" y="10.75" width="2.6875" height="2.6875" fill="#B31320"/>
<rect x="8.0625" y="10.75" width="2.6875" height="2.6875" fill="#700B12"/>
<rect x="29.5625" y="10.75" width="5.375" height="2.6875" fill="#8C0D16"/>
<rect x="24.1875" y="8.0625" width="5.375" height="2.6875" fill="#8C0D16"/>
<rect x="5.375" y="13.4375" width="2.6875" height="8.0625" fill="#8C0D16"/>
<rect x="5.375" y="21.5" width="2.6875" height="5.375" fill="#770E12"/>
<rect x="8.0625" y="26.875" width="2.6875" height="5.375" fill="#770E12"/>
<rect x="32.25" y="29.5625" width="2.6875" height="2.6875" fill="#53090E"/>
<rect x="34.9375" y="18.8125" width="2.6875" height="8.0625" fill="#770E12"/>
<rect x="34.9375" y="13.4375" width="2.6875" height="5.375" fill="#8C0D16"/>
<rect x="10.75" y="32.25" width="2.6875" height="2.6875" fill="#5B0B0E"/>
<rect x="29.5625" y="32.25" width="2.6875" height="2.6875" fill="#53090E"/>
<rect x="13.4375" y="34.9375" width="2.6875" height="2.6875" fill="#53090E"/>
<rect x="24.1875" y="34.9375" width="5.375" height="2.6875" fill="#53090E"/>
<rect x="16.125" y="34.9375" width="8.0625" height="2.6875" fill="#770E12"/>
<rect x="13.4375" y="10.75" width="2.6875" height="2.6875" fill="#FF858C"/>
<rect x="16.125" y="13.4375" width="8.0625" height="2.6875" fill="#FFA8AD"/>
<rect x="21.5" y="10.75" width="2.6875" height="2.6875" fill="#9B1218"/>
<rect x="16.125" y="10.75" width="2.6875" height="2.6875" fill="#C2000C"/>
<rect x="13.4375" y="13.4375" width="2.6875" height="2.6875" fill="#FF7580"/>
<rect x="24.1875" y="13.4375" width="2.6875" height="2.6875" fill="#FF7580"/>
<rect x="24.1875" y="10.75" width="2.6875" height="2.6875" fill="#D51B26"/>
<rect x="26.875" y="10.75" width="2.6875" height="2.6875" fill="#C2000C"/>
<rect x="29.5625" y="13.4375" width="2.6875" height="2.6875" fill="#C2000C"/>
<rect x="32.25" y="16.125" width="2.6875" height="2.6875" fill="#C2000C"/>
<rect x="29.5625" y="18.8125" width="5.375" height="5.375" fill="#F30517"/>
<rect x="26.875" y="16.125" width="2.6875" height="5.375" fill="#F30517"/>
<rect x="21.5" y="18.8125" width="8.0625" height="10.75" fill="#F30517"/>
<rect x="16.125" y="18.8125" width="2.6875" height="2.6875" fill="#F30517"/>
<rect x="10.75" y="18.8125" width="10.75" height="10.75" fill="#F30517"/>
<rect x="10.75" y="18.8125" width="2.6875" height="2.6875" fill="#F30517"/>
<rect x="32.25" y="21.5" width="2.6875" height="5.375" fill="#C2000C"/>
<rect x="32.25" y="26.875" width="2.6875" height="2.6875" fill="#C2000C"/>
<rect x="26.875" y="29.5625" width="2.6875" height="2.6875" fill="#C2000C"/>
<rect x="21.5" y="29.5625" width="5.375" height="2.6875" fill="#C2000C"/>
<rect x="13.4375" y="26.875" width="16.125" height="2.6875" fill="#C2000C"/>
<rect x="26.875" y="32.25" width="2.6875" height="2.6875" fill="#9B1218"/>
<rect x="24.1875" y="32.25" width="2.6875" height="2.6875" fill="#C2000C"/>
<rect x="18.8125" y="32.25" width="5.375" height="2.6875" fill="#9B1218"/>
<rect x="16.125" y="32.25" width="2.6875" height="2.6875" fill="#C2000C"/>
<rect x="13.4375" y="32.25" width="2.6875" height="2.6875" fill="#9B1218"/>
<rect x="10.75" y="29.5625" width="2.6875" height="2.6875" fill="#9B1218"/>
<rect x="10.75" y="24.1875" width="2.6875" height="5.375" fill="#C2000C"/>
<rect x="8.0625" y="13.4375" width="2.6875" height="13.4375" fill="#C2000C"/>
<rect x="10.75" y="13.4375" width="2.6875" height="5.375" fill="#FF3D48"/>
<rect x="13.4375" y="16.125" width="16.125" height="5.375" fill="#FF3D48"/>
<rect x="26.875" y="13.4375" width="2.6875" height="2.6875" fill="#FF3D48"/>
<rect x="29.5625" y="16.125" width="2.6875" height="2.6875" fill="#FF3D48"/>
<rect x="29.5625" y="21.5" width="2.6875" height="5.375" fill="#F30517"/>
<rect x="13.4375" y="16.125" width="5.375" height="2.6875" fill="#FF3D48"/>
<rect x="21.5" y="16.125" width="5.375" height="2.6875" fill="#FF858C"/>
<rect x="29.5625" y="29.5625" width="2.6875" height="2.6875" fill="#9B1218"/>
<rect x="32.25" y="13.4375" width="2.6875" height="2.6875" fill="#C2000C"/>
<rect x="29.5625" y="24.1875" width="2.6875" height="5.375" fill="#C2000C"/>
</svg>
