<svg width="43" height="43" viewBox="0 0 43 43" fill="none" xmlns="http://www.w3.org/2000/svg">
<rect x="10.75" y="37.625" width="21.5" height="2.6875" fill="#9D453C"/>
<rect x="8.0625" y="34.9375" width="2.6875" height="2.6875" fill="#9D453C"/>
<rect x="8.0625" y="10.75" width="2.6875" height="2.6875" fill="#9D453C"/>
<rect x="8.0625" y="18.8125" width="2.6875" height="2.6875" fill="#9D453C"/>
<rect x="10.75" y="18.8125" width="18.8125" height="2.6875" fill="#D06837"/>
<rect x="10.75" y="16.125" width="21.5" height="2.6875" fill="#E6904E"/>
<rect x="10.75" y="10.75" width="21.5" height="2.6875" fill="#E6904E"/>
<rect x="10.75" y="10.75" width="13.4375" height="2.6875" fill="#FAB755"/>
<rect x="13.4375" y="8.0625" width="10.75" height="2.6875" fill="#FAB755"/>
<rect x="10.75" y="13.4375" width="24.1875" height="2.6875" fill="#E6904E"/>
<rect x="8.0625" y="16.125" width="2.6875" height="2.6875" fill="#D06837"/>
<rect x="24.1875" y="8.0625" width="5.375" height="2.6875" fill="#E6904E"/>
<rect x="32.25" y="16.125" width="2.6875" height="2.6875" fill="#D06837"/>
<rect x="29.5625" y="18.8125" width="2.6875" height="2.6875" fill="#9D453C"/>
<rect x="32.25" y="10.75" width="2.6875" height="2.6875" fill="#9D453C"/>
<rect x="13.4375" y="5.375" width="16.125" height="2.6875" fill="#9D453C"/>
<rect x="10.75" y="8.0625" width="2.6875" height="2.6875" fill="#9D453C"/>
<rect x="29.5625" y="8.0625" width="2.6875" height="2.6875" fill="#9D453C"/>
<rect x="32.25" y="34.9375" width="2.6875" height="2.6875" fill="#9D453C"/>
<rect x="5.375" y="32.25" width="5.375" height="2.6875" fill="#44AA69"/>
<rect x="32.25" y="21.5" width="5.375" height="2.6875" fill="#44AA69"/>
<rect x="37.625" y="18.8125" width="2.6875" height="2.6875" fill="#44AA69"/>
<rect x="2.6875" y="29.5625" width="5.375" height="2.6875" fill="#44AA69"/>
<rect x="5.375" y="24.1875" width="2.6875" height="2.6875" fill="#1B5A4D"/>
<rect x="8.0625" y="26.875" width="8.0625" height="2.6875" fill="#1B5A4D"/>
<rect x="10.75" y="21.5" width="5.375" height="2.6875" fill="#1B5A4D"/>
<rect x="32.25" y="32.25" width="5.375" height="2.6875" fill="#1B5A4D"/>
<rect x="37.625" y="29.5625" width="2.6875" height="2.6875" fill="#1B5A4D"/>
<rect x="34.9375" y="26.875" width="2.6875" height="2.6875" fill="#1B5A4D"/>
<rect x="2.6875" y="21.5" width="2.6875" height="2.6875" fill="#1B5A4D"/>
<rect x="5.375" y="18.8125" width="2.6875" height="2.6875" fill="#1B5A4D"/>
<rect x="5.375" y="21.5" width="2.6875" height="2.6875" fill="#289068"/>
<rect x="8.0625" y="24.1875" width="5.375" height="2.6875" fill="#289068"/>
<rect x="34.9375" y="29.5625" width="2.6875" height="2.6875" fill="#289068"/>
<rect x="29.5625" y="26.875" width="2.6875" height="2.6875" fill="#289068"/>
<rect x="8.0625" y="21.5" width="2.6875" height="2.6875" fill="#44AA69"/>
<rect x="16.125" y="21.5" width="5.375" height="2.6875" fill="#44AA69"/>
<rect x="21.5" y="24.1875" width="10.75" height="2.6875" fill="#44AA69"/>
<rect x="5.375" y="13.4375" width="2.6875" height="5.375" fill="#9D453C"/>
<rect x="34.9375" y="13.4375" width="2.6875" height="5.375" fill="#9D453C"/>
<rect x="5.375" y="29.5625" width="2.6875" height="2.6875" fill="#8BDF67"/>
<rect x="32.25" y="18.8125" width="5.375" height="2.6875" fill="#8BDF67"/>
<rect x="21.5" y="21.5" width="10.75" height="2.6875" fill="#8BDF67"/>
<rect x="5.375" y="26.875" width="2.6875" height="2.6875" fill="#902F3E"/>
<rect x="8.0625" y="29.5625" width="2.6875" height="2.6875" fill="#902F3E"/>
<rect x="32.25" y="26.875" width="2.6875" height="5.375" fill="#902F3E"/>
<rect x="10.75" y="32.25" width="21.5" height="2.6875" fill="#902F3E"/>
<rect x="29.5625" y="32.25" width="2.6875" height="2.6875" fill="#68222D"/>
<rect x="10.75" y="32.25" width="2.6875" height="2.6875" fill="#68222D"/>
<rect x="16.125" y="32.25" width="2.6875" height="2.6875" fill="#7B2835"/>
<rect x="24.1875" y="32.25" width="2.6875" height="2.6875" fill="#7B2835"/>
<rect x="34.9375" y="24.1875" width="2.6875" height="2.6875" fill="#902F3E"/>
<rect x="10.75" y="29.5625" width="8.0625" height="2.6875" fill="#C41833"/>
<rect x="18.8125" y="29.5625" width="2.6875" height="2.6875" fill="#AC152D"/>
<rect x="24.1875" y="29.5625" width="2.6875" height="2.6875" fill="#AC152D"/>
<rect x="26.875" y="29.5625" width="5.375" height="2.6875" fill="#C41833"/>
<rect x="16.125" y="26.875" width="2.6875" height="2.6875" fill="#F7691E"/>
<rect x="26.875" y="26.875" width="2.6875" height="2.6875" fill="#F7691E"/>
<rect x="32.25" y="24.1875" width="2.6875" height="2.6875" fill="#D95008"/>
<rect x="13.4375" y="24.1875" width="2.6875" height="2.6875" fill="#F7691E"/>
<rect x="18.8125" y="26.875" width="2.6875" height="2.6875" fill="#F7691E"/>
<rect x="24.1875" y="26.875" width="2.6875" height="2.6875" fill="#F7691E"/>
<rect x="18.8125" y="26.875" width="5.375" height="2.6875" fill="#FABC1F"/>
<rect x="16.125" y="24.1875" width="5.375" height="2.6875" fill="#FABC1F"/>
<rect x="21.5" y="29.5625" width="2.6875" height="2.6875" fill="#FABC1F"/>
<rect x="21.5" y="29.5625" width="2.6875" height="2.6875" fill="#F36C23"/>
<rect x="24.1875" y="26.875" width="2.6875" height="2.6875" fill="#F0991A"/>
<rect x="10.75" y="34.9375" width="21.5" height="2.6875" fill="#E59053"/>
<rect x="8.0625" y="13.4375" width="2.6875" height="2.6875" fill="#FAB755"/>
<rect x="16.125" y="10.75" width="2.6875" height="2.6875" fill="#F7CEB5"/>
<rect x="24.1875" y="8.0625" width="2.6875" height="2.6875" fill="#F7CEB5"/>
<rect x="21.5" y="16.125" width="2.6875" height="2.6875" fill="#F7CEB5"/>
<rect x="10.75" y="16.125" width="2.6875" height="2.6875" fill="#F7CEB5"/>
<rect x="29.5625" y="13.4375" width="2.6875" height="2.6875" fill="#F7CEB5"/>
<rect x="26.875" y="34.9375" width="5.375" height="2.6875" fill="#D06837"/>
<rect x="10.75" y="34.9375" width="2.6875" height="2.6875" fill="#D06837"/>
</svg>
