<svg width="43" height="43" viewBox="0 0 43 43" fill="none" xmlns="http://www.w3.org/2000/svg">
<rect y="32.25" width="2.6875" height="2.6875" fill="#DA7201"/>
<rect y="34.9375" width="2.6875" height="2.6875" fill="#DA7201"/>
<rect x="2.6875" y="37.625" width="2.6875" height="2.6875" fill="#DA7201"/>
<rect x="5.375" y="40.3125" width="5.375" height="2.6875" fill="#DA7201"/>
<rect x="10.75" y="40.3125" width="5.375" height="2.6875" transform="rotate(-90 10.75 40.3125)" fill="#DA7201"/>
<rect x="13.4375" y="34.9375" width="2.6875" height="2.6875" transform="rotate(-90 13.4375 34.9375)" fill="#DA7201"/>
<rect x="8.0625" y="29.5625" width="2.6875" height="2.6875" transform="rotate(-90 8.0625 29.5625)" fill="#DA7201"/>
<rect x="10.75" y="26.875" width="2.6875" height="2.6875" transform="rotate(-90 10.75 26.875)" fill="#DA7201"/>
<rect x="13.4375" y="24.1875" width="8.0625" height="2.6875" transform="rotate(-90 13.4375 24.1875)" fill="#FA6A0A"/>
<rect x="10.75" y="24.1875" width="2.6875" height="2.6875" transform="rotate(-90 10.75 24.1875)" fill="#DA7201"/>
<rect x="10.75" y="21.5" width="5.375" height="2.6875" transform="rotate(-90 10.75 21.5)" fill="#B34411"/>
<rect x="16.125" y="16.125" width="5.375" height="2.6875" transform="rotate(-90 16.125 16.125)" fill="#FA6A0A"/>
<rect x="18.8125" y="13.4375" width="5.375" height="2.6875" transform="rotate(-90 18.8125 13.4375)" fill="#FA6A0A"/>
<rect x="21.5" y="10.75" width="5.375" height="2.6875" transform="rotate(-90 21.5 10.75)" fill="#FA6A0A"/>
<rect x="24.1875" y="8.0625" width="2.6875" height="13.4375" transform="rotate(-90 24.1875 8.0625)" fill="#FA6A0A"/>
<rect x="34.9375" y="10.75" width="2.6875" height="5.375" transform="rotate(-90 34.9375 10.75)" fill="#FA6A0A"/>
<rect x="40.3125" y="21.5" width="2.6875" height="10.75" transform="rotate(180 40.3125 21.5)" fill="#E65E03"/>
<rect x="16.125" y="10.75" width="2.6875" height="2.6875" transform="rotate(-90 16.125 10.75)" fill="#B34411"/>
<rect x="13.4375" y="13.4375" width="2.6875" height="2.6875" transform="rotate(-90 13.4375 13.4375)" fill="#B34411"/>
<rect x="13.4375" y="16.125" width="2.6875" height="2.6875" transform="rotate(-90 13.4375 16.125)" fill="#B34411"/>
<rect x="34.9375" y="18.8125" width="2.6875" height="2.6875" transform="rotate(-90 34.9375 18.8125)" fill="#FC741A"/>
<rect x="32.25" y="21.5" width="2.6875" height="2.6875" transform="rotate(-90 32.25 21.5)" fill="#FC741A"/>
<rect x="34.9375" y="24.1875" width="2.6875" height="2.6875" transform="rotate(-90 34.9375 24.1875)" fill="#E65E03"/>
<rect x="32.25" y="26.875" width="2.6875" height="2.6875" transform="rotate(-90 32.25 26.875)" fill="#E65E03"/>
<rect x="32.25" y="24.1875" width="2.6875" height="2.6875" transform="rotate(-90 32.25 24.1875)" fill="#FA6A0A"/>
<rect x="26.875" y="29.5625" width="2.6875" height="2.6875" transform="rotate(-90 26.875 29.5625)" fill="#E65E03"/>
<rect x="16.125" y="26.875" width="10.75" height="2.6875" fill="#FA6A0A"/>
<rect x="29.5625" y="24.1875" width="2.6875" height="2.6875" transform="rotate(-90 29.5625 24.1875)" fill="#FC741A"/>
<rect x="29.5625" y="26.875" width="2.6875" height="2.6875" transform="rotate(-90 29.5625 26.875)" fill="#F9A31C"/>
<rect x="24.1875" y="24.1875" width="2.6875" height="5.375" transform="rotate(-90 24.1875 24.1875)" fill="#F9A31C"/>
<rect x="24.1875" y="21.5" width="2.6875" height="8.0625" transform="rotate(-90 24.1875 21.5)" fill="#F9A31C"/>
<rect x="24.1875" y="18.8125" width="2.6875" height="10.75" transform="rotate(-90 24.1875 18.8125)" fill="#F9A31C"/>
<rect x="32.25" y="24.1875" width="2.6875" height="2.6875" transform="rotate(-90 32.25 24.1875)" fill="#F9A31C"/>
<rect x="34.9375" y="21.5" width="2.6875" height="2.6875" transform="rotate(-90 34.9375 21.5)" fill="#F9A31C"/>
<rect x="34.9375" y="16.125" width="5.375" height="2.6875" transform="rotate(-90 34.9375 16.125)" fill="#F9A31C"/>
<rect x="24.1875" y="16.125" width="8.0625" height="10.75" transform="rotate(-90 24.1875 16.125)" fill="#F9A31C"/>
<rect x="21.5" y="24.1875" width="13.4375" height="2.6875" transform="rotate(-90 21.5 24.1875)" fill="#F9A31C"/>
<rect x="18.8125" y="24.1875" width="10.75" height="2.6875" transform="rotate(-90 18.8125 24.1875)" fill="#F9A31C"/>
<rect x="16.125" y="24.1875" width="8.0625" height="2.6875" transform="rotate(-90 16.125 24.1875)" fill="#F9A31C"/>
<rect x="18.8125" y="8.0625" width="2.6875" height="2.6875" transform="rotate(-90 18.8125 8.0625)" fill="#B34411"/>
<rect x="18.8125" y="29.5625" width="10.75" height="2.6875" fill="#B34411"/>
<rect x="34.9375" y="24.1875" width="2.6875" height="2.6875" fill="#B34411"/>
<rect x="29.5625" y="26.875" width="5.375" height="2.6875" fill="#B34411"/>
<rect x="37.625" y="21.5" width="2.6875" height="2.6875" fill="#B34411"/>
<rect x="40.3125" y="18.8125" width="2.6875" height="2.6875" fill="#B34411"/>
<rect x="40.3125" y="8.0625" width="2.6875" height="10.75" fill="#B34411"/>
<rect x="37.625" y="5.375" width="2.6875" height="2.6875" fill="#B34411"/>
<rect x="21.5" y="2.6875" width="16.125" height="2.6875" fill="#B34411"/>
<rect x="16.125" y="32.25" width="2.6875" height="2.6875" transform="rotate(-90 16.125 32.25)" fill="#DA7201"/>
<rect x="13.4375" y="32.25" width="2.6875" height="2.6875" transform="rotate(-90 13.4375 32.25)" fill="#F9C5A0"/>
<rect x="10.75" y="34.9375" width="2.6875" height="2.6875" transform="rotate(-90 10.75 34.9375)" fill="#F9C5A0"/>
<rect x="8.0625" y="37.625" width="2.6875" height="2.6875" transform="rotate(-90 8.0625 37.625)" fill="#F9C5A0"/>
<rect x="8.0625" y="40.3125" width="2.6875" height="2.6875" transform="rotate(-90 8.0625 40.3125)" fill="#F9C5A0"/>
<rect x="5.375" y="40.3125" width="2.6875" height="2.6875" transform="rotate(-90 5.375 40.3125)" fill="#F9C5A0"/>
<rect x="2.6875" y="34.9375" width="2.6875" height="2.6875" transform="rotate(-90 2.6875 34.9375)" fill="#FFE0BF"/>
<rect x="5.375" y="34.9375" width="2.6875" height="2.6875" transform="rotate(-90 5.375 34.9375)" fill="#FFE0BF"/>
<rect x="5.375" y="37.625" width="2.6875" height="2.6875" transform="rotate(-90 5.375 37.625)" fill="#FFE0BF"/>
<rect x="2.6875" y="37.625" width="2.6875" height="2.6875" transform="rotate(-90 2.6875 37.625)" fill="#FFE0BF"/>
<rect x="8.0625" y="34.9375" width="2.6875" height="2.6875" transform="rotate(-90 8.0625 34.9375)" fill="#FFE0BF"/>
<rect x="8.0625" y="32.25" width="2.6875" height="2.6875" transform="rotate(-90 8.0625 32.25)" fill="#FFE0BF"/>
<rect x="10.75" y="32.25" width="2.6875" height="2.6875" transform="rotate(-90 10.75 32.25)" fill="#FFE0BF"/>
<rect x="10.75" y="29.5625" width="2.6875" height="2.6875" transform="rotate(-90 10.75 29.5625)" fill="#FFE0BF"/>
<rect x="13.4375" y="29.5625" width="2.6875" height="2.6875" transform="rotate(-90 13.4375 29.5625)" fill="#FFE0BF"/>
<rect x="13.4375" y="26.875" width="2.6875" height="2.6875" transform="rotate(-90 13.4375 26.875)" fill="#FFE0BF"/>
<rect x="16.125" y="29.5625" width="2.6875" height="2.6875" transform="rotate(-90 16.125 29.5625)" fill="#F9C5A0"/>
<rect x="2.6875" y="32.25" width="2.6875" height="5.375" transform="rotate(-90 2.6875 32.25)" fill="#DA7201"/>
<rect x="18.8125" y="16.125" width="2.6875" height="2.6875" transform="rotate(-90 18.8125 16.125)" fill="#FFD541"/>
<rect x="16.125" y="18.8125" width="2.6875" height="2.6875" transform="rotate(-90 16.125 18.8125)" fill="#FFD541"/>
<rect x="16.125" y="24.1875" width="2.6875" height="2.6875" transform="rotate(-90 16.125 24.1875)" fill="#FFD541"/>
<rect x="21.5" y="13.4375" width="2.6875" height="2.6875" transform="rotate(-90 21.5 13.4375)" fill="#FFD541"/>
<rect x="24.1875" y="10.75" width="2.6875" height="2.6875" transform="rotate(-90 24.1875 10.75)" fill="#FFD541"/>
<rect x="26.875" y="13.4375" width="2.6875" height="2.6875" transform="rotate(-90 26.875 13.4375)" fill="#FFD541"/>
<rect x="29.5625" y="10.75" width="2.6875" height="2.6875" transform="rotate(-90 29.5625 10.75)" fill="#FFD541"/>
<rect x="24.1875" y="24.1875" width="2.6875" height="2.6875" fill="#FA6A0A"/>
<rect x="26.875" y="24.1875" width="2.6875" height="2.6875" fill="#FA6A0A"/>
<rect x="16.125" y="24.1875" width="2.6875" height="2.6875" fill="#FA6A0A"/>
<rect x="18.8125" y="24.1875" width="5.375" height="2.6875" fill="#F9A31C"/>
<rect x="26.875" y="21.5" width="2.6875" height="2.6875" transform="rotate(-90 26.875 21.5)" fill="#FF893B"/>
<rect x="32.25" y="16.125" width="2.6875" height="2.6875" transform="rotate(-90 32.25 16.125)" fill="#FF893B"/>
<rect x="34.9375" y="16.125" width="2.6875" height="2.6875" transform="rotate(-90 34.9375 16.125)" fill="#FF893B"/>
<rect x="32.25" y="18.8125" width="2.6875" height="2.6875" transform="rotate(-90 32.25 18.8125)" fill="#FF893B"/>
<rect x="34.9375" y="21.5" width="2.6875" height="2.6875" transform="rotate(-90 34.9375 21.5)" fill="#FA6A0A"/>
<rect x="32.25" y="24.1875" width="2.6875" height="2.6875" transform="rotate(-90 32.25 24.1875)" fill="#FA6A0A"/>
<rect x="29.5625" y="26.875" width="2.6875" height="2.6875" transform="rotate(-90 29.5625 26.875)" fill="#E65E03"/>
<rect x="26.875" y="24.1875" width="2.6875" height="2.6875" transform="rotate(-90 26.875 24.1875)" fill="#FF893B"/>
<rect x="29.5625" y="21.5" width="2.6875" height="2.6875" transform="rotate(-90 29.5625 21.5)" fill="#FF893B"/>
</svg>
