<svg width="43" height="43" viewBox="0 0 43 43" fill="none" xmlns="http://www.w3.org/2000/svg">
<g clip-path="url(#clip0_6058_178794)">
<rect x="2.6875" y="8.0625" width="5.375" height="8.0625" fill="#6D091B"/>
<rect x="10.75" y="37.625" width="10.75" height="2.6875" fill="#B4E3F1"/>
<rect x="18.8125" y="34.9375" width="2.6875" height="2.6875" fill="#B4E3F1"/>
<rect x="21.5" y="29.5625" width="2.6875" height="5.375" fill="#7ACAE2"/>
<rect x="21.5" y="26.875" width="2.6875" height="2.6875" fill="#7ACAE2"/>
<rect x="16.125" y="21.5" width="2.6875" height="2.6875" fill="#B4E3F1"/>
<rect x="18.8125" y="24.1875" width="2.6875" height="2.6875" fill="#B4E3F1"/>
<rect x="8.0625" y="16.125" width="2.6875" height="2.6875" fill="#B4E3F1"/>
<rect x="5.375" y="10.75" width="2.6875" height="5.375" fill="#B4E3F1"/>
<rect x="8.0625" y="10.75" width="16.125" height="2.6875" fill="#B4E3F1"/>
<rect x="5.375" y="16.125" width="2.6875" height="2.6875" fill="#6D091B"/>
<rect x="10.75" y="18.8125" width="5.375" height="2.6875" fill="#B4E3F1"/>
<rect width="13.4375" height="2.6875" transform="matrix(-1 0 0 1 34.9375 37.625)" fill="#7ACAE2"/>
<rect width="5.375" height="2.6875" transform="matrix(-1 0 0 1 26.875 34.9375)" fill="#7ACAE2"/>
<rect width="2.6875" height="2.6875" transform="matrix(-1 0 0 1 29.5625 21.5)" fill="#7ACAE2"/>
<rect width="2.6875" height="2.6875" transform="matrix(-1 0 0 1 26.875 24.1875)" fill="#7ACAE2"/>
<rect width="2.6875" height="2.6875" transform="matrix(-1 0 0 1 37.625 16.125)" fill="#7ACAE2"/>
<rect width="16.125" height="2.6875" transform="matrix(-1 0 0 1 37.625 10.75)" fill="#7ACAE2"/>
<rect width="2.6875" height="5.375" transform="matrix(-1 0 0 1 40.3125 10.75)" fill="#7ACAE2"/>
<rect width="5.375" height="2.6875" transform="matrix(-1 0 0 1 34.9375 18.8125)" fill="#7ACAE2"/>
<rect x="2.6875" y="5.375" width="2.6875" height="2.6875" fill="#D02F4C"/>
<rect y="8.0625" width="2.6875" height="2.6875" fill="#D02F4C"/>
<rect y="10.75" width="2.6875" height="2.6875" fill="#D02F4C"/>
<rect y="13.4375" width="2.6875" height="2.6875" fill="#D02F4C"/>
<rect x="2.6875" y="16.125" width="2.6875" height="2.6875" fill="#D02F4C"/>
<rect x="5.375" y="18.8125" width="2.6875" height="2.6875" fill="#D02F4C"/>
<rect x="8.0625" y="18.8125" width="2.6875" height="2.6875" fill="#D02F4C"/>
<rect x="5.375" y="2.6875" width="2.6875" height="2.6875" fill="#D02F4C"/>
<rect x="8.0625" y="2.6875" width="2.6875" height="2.6875" fill="#D02F4C"/>
<rect x="10.75" y="2.6875" width="2.6875" height="2.6875" fill="#D02F4C"/>
<rect x="13.4375" y="5.375" width="2.6875" height="2.6875" fill="#D02F4C"/>
<rect x="16.125" y="8.0625" width="2.6875" height="2.6875" fill="#D02F4C"/>
<rect x="13.4375" y="10.75" width="2.6875" height="2.6875" fill="#B4E3F1"/>
<rect x="5.375" y="5.375" width="8.0625" height="2.6875" fill="#9B0D27"/>
<rect x="8.0625" y="8.0625" width="8.0625" height="2.6875" fill="#9B0D27"/>
<rect x="26.875" y="8.0625" width="5.375" height="2.6875" fill="#3695DD"/>
<rect x="29.5625" y="5.375" width="5.375" height="2.6875" fill="#3695DD"/>
<rect x="32.25" y="2.6875" width="5.375" height="2.6875" fill="#3695DD"/>
<rect x="34.9375" width="10.75" height="2.6875" fill="#3695DD"/>
<rect x="8.0625" y="13.4375" width="29.5625" height="2.6875" fill="#E5F6FB"/>
<rect x="10.75" y="16.125" width="24.1875" height="2.6875" fill="#005BC6"/>
<rect x="16.125" y="18.8125" width="13.4375" height="2.6875" fill="#005BC6"/>
<rect x="18.8125" y="21.5" width="8.0625" height="2.6875" fill="#005BC6"/>
<rect x="21.5" y="24.1875" width="2.6875" height="2.6875" fill="#005BC6"/>
<rect x="13.4375" y="16.125" width="2.6875" height="2.6875" fill="#B4E3F1" fill-opacity="0.4"/>
<rect x="18.8125" y="18.8125" width="2.6875" height="2.6875" fill="#B4E3F1" fill-opacity="0.4"/>
<rect x="21.5" y="16.125" width="2.6875" height="2.6875" fill="#B4E3F1" fill-opacity="0.2"/>
<rect x="24.1875" y="21.5" width="2.6875" height="2.6875" fill="#B4E3F1" fill-opacity="0.2"/>
<rect x="26.875" y="18.8125" width="2.6875" height="2.6875" fill="#B4E3F1" fill-opacity="0.5"/>
<rect x="26.875" y="16.125" width="2.6875" height="2.6875" fill="#B4E3F1" fill-opacity="0.15"/>
<rect x="32.25" y="16.125" width="2.6875" height="2.6875" fill="#B4E3F1" fill-opacity="0.15"/>
</g>
<defs>
<clipPath id="clip0_6058_178794">
<rect width="43" height="43" fill="white"/>
</clipPath>
</defs>
</svg>
