<svg width="43" height="43" viewBox="0 0 43 43" fill="none" xmlns="http://www.w3.org/2000/svg">
<rect x="16.125" y="37.625" width="10.75" height="2.6875" fill="#8FB4BD"/>
<rect x="13.4375" y="32.25" width="2.6875" height="5.375" fill="#BDD4D8"/>
<rect x="10.75" y="10.75" width="2.6875" height="2.6875" fill="#D0EFF7"/>
<rect x="8.0625" y="24.1875" width="2.6875" height="2.6875" fill="#8FB4BD"/>
<rect x="32.25" y="24.1875" width="2.6875" height="2.6875" fill="#8FB4BD"/>
<rect x="10.75" y="18.8125" width="2.6875" height="2.6875" fill="#D0EFF7"/>
<rect x="29.5625" y="18.8125" width="2.6875" height="2.6875" fill="#D0EFF7"/>
<rect x="13.4375" y="21.5" width="16.125" height="2.6875" fill="#F8FFFE"/>
<rect x="16.125" y="32.25" width="10.75" height="2.6875" fill="#FFA8CC"/>
<rect x="16.125" y="29.5625" width="13.4375" height="2.6875" fill="#FFA8CC"/>
<rect x="18.8125" y="26.875" width="2.6875" height="2.6875" fill="#FFA8CC"/>
<rect x="24.1875" y="26.875" width="2.6875" height="2.6875" fill="#FFA8CC"/>
<rect x="13.4375" y="26.875" width="2.6875" height="2.6875" fill="#FFA8CC"/>
<rect x="10.75" y="16.125" width="2.6875" height="2.6875" fill="#FF2F71"/>
<rect x="10.75" y="21.5" width="2.6875" height="2.6875" fill="#FFA8CC"/>
<rect x="13.4375" y="21.5" width="2.6875" height="2.6875" fill="#FF559C"/>
<rect x="10.75" y="13.4375" width="2.6875" height="2.6875" fill="#FF2F71"/>
<rect x="26.875" y="10.75" width="2.6875" height="2.6875" fill="#FF2F71"/>
<rect x="24.1875" y="18.8125" width="2.6875" height="2.6875" fill="#FF559C"/>
<rect x="16.125" y="18.8125" width="5.375" height="2.6875" fill="#FF559C"/>
<rect x="24.1875" y="16.125" width="5.375" height="2.6875" fill="#FF5269"/>
<rect x="26.875" y="13.4375" width="5.375" height="2.6875" fill="#FF2F71"/>
<rect x="13.4375" y="10.75" width="10.75" height="5.375" fill="#FF5269"/>
<rect x="13.4375" y="16.125" width="8.0625" height="2.6875" fill="#FF5269"/>
<rect x="16.125" y="26.875" width="2.6875" height="2.6875" fill="#FF559C"/>
<rect x="13.4375" y="29.5625" width="2.6875" height="2.6875" fill="#FF559C"/>
<rect x="21.5" y="26.875" width="2.6875" height="2.6875" fill="#FF559C"/>
<rect x="18.8125" y="32.25" width="2.6875" height="2.6875" fill="#FF559C"/>
<rect x="16.125" y="34.9375" width="10.75" height="2.6875" fill="#FFA8CC"/>
<rect x="26.875" y="26.875" width="2.6875" height="2.6875" fill="#FF559C"/>
<rect x="26.875" y="21.5" width="2.6875" height="2.6875" fill="#FF559C"/>
<rect x="29.5625" y="16.125" width="2.6875" height="2.6875" fill="#FF2F71"/>
<rect x="29.5625" y="21.5" width="2.6875" height="2.6875" fill="#FFA8CC"/>
<rect x="13.4375" y="24.1875" width="16.125" height="2.6875" fill="#FF559C"/>
<rect x="13.4375" y="18.8125" width="2.6875" height="2.6875" fill="#F8FFFE"/>
<rect x="26.875" y="18.8125" width="2.6875" height="2.6875" fill="#F8FFFE"/>
<rect x="29.5625" y="10.75" width="2.6875" height="2.6875" fill="#F8FFFE"/>
<rect x="13.4375" y="8.0625" width="16.125" height="2.6875" fill="#D0EFF7"/>
<rect x="26.875" y="32.25" width="2.6875" height="5.375" fill="#BDD4D8"/>
<rect x="10.75" y="26.875" width="2.6875" height="5.375" fill="#BDD4D8"/>
<rect x="29.5625" y="26.875" width="2.6875" height="5.375" fill="#BDD4D8"/>
<rect x="8.0625" y="13.4375" width="2.6875" height="10.75" fill="#CEF3F4"/>
<rect x="32.25" y="13.4375" width="2.6875" height="10.75" fill="#CEF3F4"/>
<rect x="21.5" y="16.125" width="2.6875" height="5.375" fill="#CCF7A1"/>
<rect x="21.5" y="18.8125" width="2.6875" height="2.6875" fill="#539626"/>
<rect x="24.1875" y="10.75" width="2.6875" height="5.375" fill="#89D31F"/>
<rect x="26.875" y="5.375" width="2.6875" height="5.375" fill="#89D31F"/>
<rect x="29.5625" width="2.6875" height="5.375" fill="#CCF7A1"/>
<rect x="24.1875" y="13.4375" width="2.6875" height="2.6875" fill="#539626"/>
<rect x="26.875" y="8.0625" width="2.6875" height="2.6875" fill="#539626"/>
<rect x="29.5625" y="2.6875" width="2.6875" height="2.6875" fill="#539626"/>
<rect x="13.4375" y="10.75" width="2.6875" height="2.6875" fill="#FF2F71"/>
<rect x="29.5625" y="24.1875" width="2.6875" height="5.375" fill="#D0EFF7"/>
<rect x="10.75" y="24.1875" width="2.6875" height="5.375" fill="#D0EFF7"/>
<rect x="13.4375" y="32.25" width="2.6875" height="2.6875" fill="#D0EFF7"/>
<rect x="26.875" y="32.25" width="2.6875" height="2.6875" fill="#D0EFF7"/>
<rect x="16.125" y="13.4375" width="5.375" height="2.6875" fill="#FFA8CC"/>
<rect x="24.1875" y="16.125" width="2.6875" height="2.6875" fill="#FFA8CC"/>
<rect x="21.5" y="29.5625" width="2.6875" height="2.6875" fill="#FFD1E4"/>
<rect x="24.1875" y="32.25" width="2.6875" height="2.6875" fill="#FFD1E4"/>
<rect x="16.125" y="32.25" width="2.6875" height="2.6875" fill="#FFD1E4"/>
<rect x="16.125" y="8.0625" width="5.375" height="2.6875" fill="#F8FFFE"/>
<rect x="21.5" y="8.0625" width="2.6875" height="2.6875" fill="#B2DBE6"/>
<rect x="24.1875" y="8.0625" width="2.6875" height="2.6875" fill="#F8FFFE"/>
<rect x="32.25" y="13.4375" width="2.6875" height="2.6875" fill="#F8FFFE"/>
<rect x="8.0625" y="13.4375" width="2.6875" height="2.6875" fill="#B2DBE6"/>
</svg>
