<svg width="43" height="43" viewBox="0 0 43 43" fill="none" xmlns="http://www.w3.org/2000/svg">
<rect x="2.6875" y="29.5625" width="2.6875" height="5.375" fill="#B23F6E"/>
<rect x="2.6875" y="26.875" width="2.6875" height="2.6875" fill="#FFEEB1"/>
<rect x="2.6875" y="29.5625" width="2.6875" height="2.6875" fill="#FFAC5D"/>
<rect x="37.625" y="13.4375" width="2.6875" height="13.4375" fill="#B75C30"/>
<rect width="5.375" height="2.6875" transform="matrix(-1 0 0 1 24.1875 2.6875)" fill="#B75C30"/>
<rect width="5.375" height="2.6875" transform="matrix(-1 0 0 1 29.5625 5.375)" fill="#B75C30"/>
<rect width="5.375" height="2.6875" transform="matrix(-1 0 0 1 34.9375 8.0625)" fill="#B75C30"/>
<rect width="2.6875" height="2.6875" transform="matrix(-1 0 0 1 37.625 10.75)" fill="#B75C30"/>
<rect width="5.375" height="2.6875" transform="matrix(-1 0 0 1 37.625 26.875)" fill="#62042D"/>
<rect width="8.0625" height="2.6875" transform="matrix(-1 0 0 1 32.25 29.5625)" fill="#62042D"/>
<rect width="8.0625" height="2.6875" transform="matrix(-1 0 0 1 24.1875 32.25)" fill="#62042D"/>
<rect width="5.375" height="2.6875" transform="matrix(-1 0 0 1 16.125 32.25)" fill="#DB735F"/>
<rect width="5.375" height="2.6875" transform="matrix(-1 0 0 1 24.1875 29.5625)" fill="#DB735F"/>
<rect width="8.0625" height="2.6875" transform="matrix(-1 0 0 1 32.25 26.875)" fill="#DB735F"/>
<rect width="13.4375" height="2.6875" transform="matrix(-1 0 0 1 32.25 24.1875)" fill="#C5095B"/>
<rect width="2.6875" height="2.6875" transform="matrix(-1 0 0 1 29.5625 21.5)" fill="#C5095B"/>
<rect width="2.6875" height="2.6875" transform="matrix(-1 0 0 1 34.9375 21.5)" fill="#C5095B"/>
<rect width="2.6875" height="2.6875" transform="matrix(-1 0 0 1 29.5625 13.4375)" fill="#C5095B"/>
<rect width="2.6875" height="2.6875" transform="matrix(-1 0 0 1 32.25 13.4375)" fill="#B23F6E"/>
<rect width="2.6875" height="2.6875" transform="matrix(-1 0 0 1 24.1875 10.75)" fill="#C85653"/>
<rect width="5.375" height="2.6875" transform="matrix(-1 0 0 1 18.8125 26.875)" fill="#C5095B"/>
<rect width="2.6875" height="2.6875" transform="matrix(-1 0 0 1 16.125 21.5)" fill="#C5095B"/>
<rect width="2.6875" height="2.6875" transform="matrix(-1 0 0 1 13.4375 21.5)" fill="#B23F6E"/>
<rect width="2.6875" height="2.6875" transform="matrix(-1 0 0 1 21.5 16.125)" fill="#B23F6E"/>
<rect width="2.6875" height="2.6875" transform="matrix(-1 0 0 1 26.875 21.5)" fill="#B23F6E"/>
<rect width="2.6875" height="2.6875" transform="matrix(-1 0 0 1 32.25 21.5)" fill="#B23F6E"/>
<rect width="5.375" height="2.6875" transform="matrix(-1 0 0 1 24.1875 26.875)" fill="#B23F6E"/>
<rect width="2.6875" height="2.6875" transform="matrix(-1 0 0 1 13.4375 26.875)" fill="#D4827B"/>
<rect width="5.375" height="2.6875" transform="matrix(-1 0 0 1 18.8125 24.1875)" fill="#D4827B"/>
<rect width="5.375" height="2.6875" transform="matrix(-1 0 0 1 24.1875 21.5)" fill="#D4827B"/>
<rect width="8.0625" height="2.6875" transform="matrix(-1 0 0 1 32.25 18.8125)" fill="#D4827B"/>
<rect width="2.6875" height="2.6875" transform="matrix(-1 0 0 1 34.9375 18.8125)" fill="#D07979"/>
<rect width="2.6875" height="2.6875" transform="matrix(-1 0 0 1 16.125 16.125)" fill="#C5095B"/>
<rect width="2.6875" height="2.6875" transform="matrix(-1 0 0 1 24.1875 16.125)" fill="#C5095B"/>
<rect width="2.6875" height="2.6875" transform="matrix(-1 0 0 1 21.5 10.75)" fill="#C5095B"/>
<rect width="13.4375" height="2.6875" transform="matrix(-1 0 0 1 18.8125 29.5625)" fill="#C5095B"/>
<rect width="5.375" height="2.6875" transform="matrix(-1 0 0 1 10.75 32.25)" fill="#C5095B"/>
<rect width="2.6875" height="2.6875" transform="matrix(-1 0 0 1 34.9375 24.1875)" fill="#DB735F"/>
<rect width="2.6875" height="2.6875" transform="matrix(-1 0 0 1 37.625 24.1875)" fill="#E79B77"/>
<rect width="2.6875" height="5.375" transform="matrix(-1 0 0 1 37.625 18.8125)" fill="#FFCB7E"/>
<rect width="2.6875" height="5.375" transform="matrix(-4.37114e-08 1 1 4.37114e-08 26.875 16.125)" fill="#FFCB7E"/>
<rect width="2.6875" height="2.6875" transform="matrix(-4.37114e-08 1 1 4.37114e-08 5.375 24.1875)" fill="#FFCB7E"/>
<rect width="2.6875" height="2.6875" transform="matrix(-4.37114e-08 1 1 4.37114e-08 8.0625 21.5)" fill="#FFCB7E"/>
<rect width="2.6875" height="2.6875" transform="matrix(-4.37114e-08 1 1 4.37114e-08 10.75 16.125)" fill="#FFCB7E"/>
<rect width="2.6875" height="2.6875" transform="matrix(-4.37114e-08 1 1 4.37114e-08 5.375 26.875)" fill="#FFAC5D"/>
<rect width="2.6875" height="2.6875" transform="matrix(-4.37114e-08 1 1 4.37114e-08 8.0625 26.875)" fill="#E79B77"/>
<rect width="2.6875" height="2.6875" transform="matrix(-4.37114e-08 1 1 4.37114e-08 10.75 24.1875)" fill="#E79B77"/>
<rect width="2.6875" height="5.375" transform="matrix(-4.37114e-08 1 1 4.37114e-08 10.75 18.8125)" fill="#E79B77"/>
<rect width="2.6875" height="5.375" transform="matrix(-4.37114e-08 1 1 4.37114e-08 18.8125 13.4375)" fill="#E79B77"/>
<rect width="2.6875" height="2.6875" transform="matrix(-4.37114e-08 1 1 4.37114e-08 21.5 8.0625)" fill="#E79B77"/>
<rect width="2.6875" height="2.6875" transform="matrix(-4.37114e-08 1 1 4.37114e-08 26.875 10.75)" fill="#E79B77"/>
<rect width="2.6875" height="2.6875" transform="matrix(-4.37114e-08 1 1 4.37114e-08 18.8125 5.375)" fill="#FFCB7E"/>
<rect width="5.375" height="2.6875" transform="matrix(-4.37114e-08 1 1 4.37114e-08 32.25 13.4375)" fill="#E79B77"/>
<rect width="2.6875" height="2.6875" transform="matrix(-4.37114e-08 1 1 4.37114e-08 34.9375 16.125)" fill="#E79B77"/>
<rect width="2.6875" height="2.6875" transform="matrix(-4.37114e-08 1 1 4.37114e-08 8.0625 24.1875)" fill="#F9AA7E"/>
<rect width="2.6875" height="2.6875" transform="matrix(-4.37114e-08 1 1 4.37114e-08 16.125 21.5)" fill="#F9AA7E"/>
<rect width="2.6875" height="2.6875" transform="matrix(-4.37114e-08 1 1 4.37114e-08 10.75 26.875)" fill="#D4827B"/>
<rect width="2.6875" height="2.6875" transform="matrix(-4.37114e-08 1 1 4.37114e-08 24.1875 16.125)" fill="#FBE2A5"/>
<rect width="2.6875" height="2.6875" transform="matrix(-4.37114e-08 1 1 4.37114e-08 34.9375 13.4375)" fill="#FBE2A5"/>
<rect width="2.6875" height="5.375" transform="matrix(-4.37114e-08 1 1 4.37114e-08 29.5625 10.75)" fill="#FBE2A5"/>
<rect width="2.6875" height="2.6875" transform="matrix(-4.37114e-08 1 1 4.37114e-08 26.875 8.0625)" fill="#FBE2A5"/>
<rect width="2.6875" height="5.375" transform="matrix(-4.37114e-08 1 1 4.37114e-08 16.125 8.0625)" fill="#FBE2A5"/>
<rect width="5.375" height="2.6875" transform="matrix(-4.37114e-08 1 1 4.37114e-08 24.1875 8.0625)" fill="#FBE2A5"/>
<rect width="2.6875" height="2.6875" transform="matrix(-4.37114e-08 1 1 4.37114e-08 16.125 16.125)" fill="#FFEEB1"/>
<rect width="2.6875" height="2.6875" transform="matrix(-4.37114e-08 1 1 4.37114e-08 18.8125 18.8125)" fill="#FFD98B"/>
<rect width="2.6875" height="2.6875" transform="matrix(-4.37114e-08 1 1 4.37114e-08 16.125 18.8125)" fill="#FFC777"/>
<rect width="2.6875" height="2.6875" transform="matrix(-4.37114e-08 1 1 4.37114e-08 8.0625 18.8125)" fill="#FFC777"/>
<rect width="2.6875" height="2.6875" transform="matrix(-4.37114e-08 1 1 4.37114e-08 21.5 18.8125)" fill="#FFC777"/>
<rect width="2.6875" height="2.6875" transform="matrix(-4.37114e-08 1 1 4.37114e-08 24.1875 13.4375)" fill="#FFC777"/>
<rect width="2.6875" height="2.6875" transform="matrix(-4.37114e-08 1 1 4.37114e-08 21.5 5.375)" fill="#FFC777"/>
<rect width="2.6875" height="2.6875" transform="matrix(-4.37114e-08 1 1 4.37114e-08 16.125 13.4375)" fill="#FFC777"/>
<rect width="2.6875" height="2.6875" transform="matrix(-4.37114e-08 1 1 4.37114e-08 16.125 10.75)" fill="#FFC777"/>
<rect width="2.6875" height="2.6875" transform="matrix(-4.37114e-08 1 1 4.37114e-08 13.4375 13.4375)" fill="#FFEEB1"/>
<rect width="13.4375" height="2.6875" transform="matrix(-1 0 0 1 16.125 34.9375)" fill="#62042D"/>
</svg>
