<svg width="43" height="43" viewBox="0 0 43 43" fill="none" xmlns="http://www.w3.org/2000/svg">
<g clip-path="url(#clip0_6058_178780)">
<rect x="13.4375" width="16.125" height="2.6875" fill="#FA8D00"/>
<rect x="8.0625" y="2.6875" width="5.375" height="2.6875" fill="#FA8D00"/>
<rect x="29.5625" y="2.6875" width="5.375" height="2.6875" fill="#FA8D00"/>
<rect x="5.375" y="5.375" width="2.6875" height="2.6875" fill="#FA8D00"/>
<rect x="34.9375" y="5.375" width="2.6875" height="2.6875" fill="#FA8D00"/>
<rect x="2.6875" y="8.0625" width="2.6875" height="5.375" fill="#FA8D00"/>
<rect x="37.625" y="8.0625" width="2.6875" height="5.375" fill="#FA8D00"/>
<rect x="2.6875" y="29.5625" width="2.6875" height="2.6875" fill="#FA8D00"/>
<rect x="2.6875" y="13.4375" width="2.6875" height="16.125" fill="#FBB939"/>
<rect x="37.625" y="13.4375" width="2.6875" height="16.125" fill="#FBB939"/>
<rect x="34.9375" y="8.0625" width="2.6875" height="2.6875" fill="#FBB939"/>
<rect x="34.9375" y="32.25" width="2.6875" height="2.6875" fill="#EFA128"/>
<rect x="5.375" y="32.25" width="2.6875" height="2.6875" fill="#EFA128"/>
<rect x="8.0625" y="34.9375" width="2.6875" height="2.6875" fill="#EFA128"/>
<rect x="13.4375" y="37.625" width="16.125" height="2.6875" fill="#FFA006"/>
<rect x="10.75" y="34.9375" width="2.6875" height="2.6875" fill="#D60202"/>
<rect x="8.0625" y="32.25" width="2.6875" height="2.6875" fill="#D60202"/>
<rect x="8.0625" y="8.0625" width="2.6875" height="2.6875" fill="#D60202"/>
<rect x="24.1875" y="5.375" width="2.6875" height="2.6875" fill="#D60202"/>
<rect x="18.8125" y="5.375" width="2.6875" height="2.6875" fill="#D60202"/>
<rect x="10.75" y="5.375" width="5.375" height="2.6875" fill="#D60202"/>
<rect x="5.375" y="26.875" width="2.6875" height="5.375" fill="#D60202"/>
<rect x="5.375" y="10.75" width="2.6875" height="5.375" fill="#D60202"/>
<rect x="5.375" y="24.1875" width="2.6875" height="2.6875" fill="#F35500"/>
<rect x="5.375" y="18.8125" width="2.6875" height="2.6875" fill="#F35500"/>
<rect x="26.875" y="32.25" width="2.6875" height="2.6875" fill="#F35500"/>
<rect x="5.375" y="16.125" width="2.6875" height="2.6875" fill="#860F00"/>
<rect x="5.375" y="21.5" width="2.6875" height="2.6875" fill="#FF8100"/>
<rect x="16.125" y="5.375" width="2.6875" height="2.6875" fill="#860F00"/>
<rect x="21.5" y="5.375" width="2.6875" height="2.6875" fill="#860F00"/>
<rect x="29.5625" y="34.9375" width="2.6875" height="2.6875" fill="#D60202"/>
<rect x="32.25" y="34.9375" width="2.6875" height="2.6875" fill="#FFA006"/>
<rect x="32.25" y="32.25" width="2.6875" height="2.6875" fill="#D60202"/>
<rect x="34.9375" y="29.5625" width="2.6875" height="2.6875" fill="#D60202"/>
<rect x="32.25" y="29.5625" width="2.6875" height="2.6875" fill="#ED4400"/>
<rect x="32.25" y="21.5" width="2.6875" height="2.6875" fill="#ED4400"/>
<rect x="21.5" y="21.5" width="2.6875" height="2.6875" fill="#ED4400"/>
<rect x="29.5625" y="32.25" width="2.6875" height="2.6875" fill="#CF3700"/>
<rect x="24.1875" y="32.25" width="2.6875" height="2.6875" fill="#D52B00"/>
<rect x="21.5" y="32.25" width="2.6875" height="2.6875" fill="#D52B00"/>
<rect x="16.125" y="32.25" width="2.6875" height="2.6875" fill="#F95C00"/>
<rect x="21.5" y="29.5625" width="2.6875" height="2.6875" fill="#F95C00"/>
<rect x="13.4375" y="32.25" width="2.6875" height="2.6875" fill="#539C00"/>
<rect x="10.75" y="24.1875" width="2.6875" height="2.6875" fill="#539C00"/>
<rect x="10.75" y="18.8125" width="2.6875" height="2.6875" fill="#FFA740"/>
<rect x="21.5" y="18.8125" width="2.6875" height="2.6875" fill="#539C00"/>
<rect x="13.4375" y="8.0625" width="2.6875" height="2.6875" fill="#539C00"/>
<rect x="26.875" y="13.4375" width="2.6875" height="2.6875" fill="#539C00"/>
<rect x="24.1875" y="24.1875" width="2.6875" height="2.6875" fill="#539C00"/>
<rect x="10.75" y="32.25" width="2.6875" height="2.6875" fill="#E66B00"/>
<rect x="26.875" y="34.9375" width="2.6875" height="2.6875" fill="#E66B00"/>
<rect x="21.5" y="34.9375" width="2.6875" height="2.6875" fill="#E66B00"/>
<rect x="10.75" y="26.875" width="2.6875" height="2.6875" fill="#860F00"/>
<rect x="10.75" y="29.5625" width="2.6875" height="2.6875" fill="#860F00"/>
<rect x="26.875" y="29.5625" width="2.6875" height="2.6875" fill="#860F00"/>
<rect x="24.1875" y="34.9375" width="2.6875" height="2.6875" fill="#860F00"/>
<rect x="18.8125" y="32.25" width="2.6875" height="2.6875" fill="#860F00"/>
<rect x="29.5625" y="29.5625" width="2.6875" height="2.6875" fill="#860F00"/>
<rect x="29.5625" y="26.875" width="2.6875" height="2.6875" fill="#860F00"/>
<rect x="32.25" y="16.125" width="2.6875" height="5.375" fill="#860F00"/>
<rect x="29.5625" y="8.0625" width="2.6875" height="2.6875" fill="#860F00"/>
<rect x="26.875" y="8.0625" width="2.6875" height="2.6875" fill="#D12F1F"/>
<rect x="24.1875" y="8.0625" width="2.6875" height="2.6875" fill="#E64A00"/>
<rect x="18.8125" y="8.0625" width="2.6875" height="2.6875" fill="#E64A00"/>
<rect x="16.125" y="8.0625" width="2.6875" height="2.6875" fill="#F56B00"/>
<rect x="21.5" y="8.0625" width="2.6875" height="2.6875" fill="#F56B00"/>
<rect x="16.125" y="10.75" width="2.6875" height="5.375" fill="#E60000"/>
<rect x="18.8125" y="21.5" width="2.6875" height="5.375" fill="#E60000"/>
<rect x="21.5" y="10.75" width="2.6875" height="5.375" fill="#E60000"/>
<rect x="24.1875" y="10.75" width="2.6875" height="2.6875" fill="#EF7500"/>
<rect x="24.1875" y="18.8125" width="2.6875" height="2.6875" fill="#EF7500"/>
<rect x="18.8125" y="10.75" width="2.6875" height="2.6875" fill="#EF7500"/>
<rect x="24.1875" y="13.4375" width="2.6875" height="5.375" fill="#EA6900"/>
<rect x="18.8125" y="16.125" width="2.6875" height="2.6875" fill="#EA6900"/>
<rect x="18.8125" y="18.8125" width="2.6875" height="2.6875" fill="#EA6900"/>
<rect x="18.8125" y="13.4375" width="2.6875" height="2.6875" fill="#860F00"/>
<rect x="10.75" y="8.0625" width="2.6875" height="2.6875" fill="#F74C00"/>
<rect x="10.75" y="10.75" width="2.6875" height="2.6875" fill="#D22E1F"/>
<rect x="8.0625" y="10.75" width="2.6875" height="2.6875" fill="#E96400"/>
<rect x="8.0625" y="13.4375" width="2.6875" height="2.6875" fill="#CD3100"/>
<rect x="10.75" y="16.125" width="2.6875" height="2.6875" fill="#CF3E00"/>
<rect x="10.75" y="21.5" width="2.6875" height="2.6875" fill="#CF3E00"/>
<rect x="8.0625" y="16.125" width="2.6875" height="2.6875" fill="#E65400"/>
<rect x="8.0625" y="21.5" width="2.6875" height="2.6875" fill="#E65400"/>
<rect x="8.0625" y="24.1875" width="2.6875" height="2.6875" fill="#E25400"/>
<rect x="8.0625" y="18.8125" width="2.6875" height="2.6875" fill="#DD0000"/>
<rect x="8.0625" y="26.875" width="2.6875" height="2.6875" fill="#D22E1F"/>
<rect x="29.5625" y="10.75" width="2.6875" height="2.6875" fill="#860F00"/>
<rect x="32.25" y="10.75" width="2.6875" height="2.6875" fill="#E05800"/>
<rect x="32.25" y="13.4375" width="2.6875" height="2.6875" fill="#E14C00"/>
<rect x="32.25" y="24.1875" width="2.6875" height="2.6875" fill="#FF8100"/>
<rect x="29.5625" y="13.4375" width="2.6875" height="2.6875" fill="#FFA740"/>
<rect x="26.875" y="16.125" width="2.6875" height="2.6875" fill="#FFA740"/>
<rect x="29.5625" y="16.125" width="2.6875" height="2.6875" fill="#EE5F00"/>
<rect x="26.875" y="21.5" width="5.375" height="2.6875" fill="#EE5F00"/>
<rect x="29.5625" y="24.1875" width="2.6875" height="2.6875" fill="#D44C00"/>
<rect x="26.875" y="24.1875" width="2.6875" height="2.6875" fill="#DD5F00"/>
<rect x="24.1875" y="26.875" width="2.6875" height="5.375" fill="#DD5F00"/>
<rect x="16.125" y="26.875" width="2.6875" height="2.6875" fill="#CF6000"/>
<rect x="16.125" y="29.5625" width="2.6875" height="2.6875" fill="#FFA53C"/>
<rect x="18.8125" y="29.5625" width="2.6875" height="2.6875" fill="#FFA53C"/>
<rect x="18.8125" y="26.875" width="2.6875" height="2.6875" fill="#FFA53C"/>
<rect x="26.875" y="18.8125" width="2.6875" height="2.6875" fill="#FFA53C"/>
<rect x="29.5625" y="18.8125" width="2.6875" height="2.6875" fill="#FFA53C"/>
<rect x="13.4375" y="29.5625" width="2.6875" height="2.6875" fill="#D55400"/>
<rect x="13.4375" y="26.875" width="2.6875" height="2.6875" fill="#C63F00"/>
<rect x="21.5" y="26.875" width="2.6875" height="2.6875" fill="#C63F00"/>
<rect x="13.4375" y="24.1875" width="2.6875" height="2.6875" fill="#DD0000"/>
<rect x="13.4375" y="18.8125" width="2.6875" height="2.6875" fill="#DD0000"/>
<rect x="13.4375" y="16.125" width="2.6875" height="2.6875" fill="#FB8A00"/>
<rect x="13.4375" y="21.5" width="2.6875" height="2.6875" fill="#FB8A00"/>
<rect x="21.5" y="24.1875" width="2.6875" height="2.6875" fill="#FB8A00"/>
<rect x="16.125" y="16.125" width="2.6875" height="2.6875" fill="#DE0000"/>
<rect x="16.125" y="21.5" width="2.6875" height="2.6875" fill="#DE0000"/>
<rect x="24.1875" y="21.5" width="2.6875" height="2.6875" fill="#DE0000"/>
<rect x="21.5" y="16.125" width="2.6875" height="2.6875" fill="#FFA740"/>
<rect x="32.25" y="26.875" width="2.6875" height="2.6875" fill="#539C00"/>
<rect x="26.875" y="10.75" width="2.6875" height="2.6875" fill="#860F00"/>
<rect x="16.125" y="5.375" width="2.6875" height="2.6875" fill="#860F00"/>
<rect x="21.5" y="5.375" width="2.6875" height="2.6875" fill="#D12F1F"/>
<rect x="13.4375" y="10.75" width="2.6875" height="2.6875" fill="#860F00"/>
<rect x="13.4375" y="13.4375" width="2.6875" height="2.6875" fill="#860F00"/>
<rect x="16.125" y="24.1875" width="2.6875" height="2.6875" fill="#860F00"/>
<rect x="16.125" y="18.8125" width="2.6875" height="2.6875" fill="#860F00"/>
<rect x="26.875" y="26.875" width="2.6875" height="2.6875" fill="#D12F1D"/>
<rect x="16.125" y="34.9375" width="2.6875" height="2.6875" fill="#E93C00"/>
<rect x="18.8125" y="34.9375" width="2.6875" height="2.6875" fill="#E93C00"/>
<rect x="13.4375" y="34.9375" width="2.6875" height="2.6875" fill="#D84705"/>
<rect x="10.75" y="13.4375" width="2.6875" height="2.6875" fill="#860F00"/>
<rect x="8.0625" y="29.5625" width="2.6875" height="2.6875" fill="#860F00"/>
<rect x="34.9375" y="26.875" width="2.6875" height="2.6875" fill="#E15200"/>
<rect x="5.375" y="8.0625" width="2.6875" height="2.6875" fill="#FBB939"/>
<rect x="26.875" y="5.375" width="2.6875" height="2.6875" fill="#F77B00"/>
<rect x="29.5625" y="5.375" width="2.6875" height="2.6875" fill="#D60202"/>
<rect x="32.25" y="8.0625" width="2.6875" height="2.6875" fill="#D60202"/>
<rect x="34.9375" y="10.75" width="2.6875" height="2.6875" fill="#D60202"/>
<rect x="34.9375" y="13.4375" width="2.6875" height="8.0625" fill="#F06700"/>
<rect x="34.9375" y="21.5" width="2.6875" height="5.375" fill="#F41530"/>
<rect x="8.0625" y="5.375" width="2.6875" height="2.6875" fill="#FFE192"/>
<rect x="32.25" y="5.375" width="2.6875" height="2.6875" fill="#FFE192"/>
<rect x="21.5" y="2.6875" width="8.0625" height="2.6875" fill="#FFE192"/>
<rect x="13.4375" y="2.6875" width="5.375" height="2.6875" fill="#FFC156"/>
<rect x="16.125" y="2.6875" width="5.375" height="2.6875" fill="#FFC156"/>
<rect x="2.6875" y="32.25" width="2.6875" height="2.6875" fill="#C36D00"/>
<rect x="37.625" y="32.25" width="2.6875" height="2.6875" fill="#C36D00"/>
<rect x="5.375" y="34.9375" width="2.6875" height="2.6875" fill="#C36D00"/>
<rect x="34.9375" y="34.9375" width="2.6875" height="2.6875" fill="#C36D00"/>
<rect x="8.0625" y="37.625" width="5.375" height="2.6875" fill="#C36D00"/>
<rect x="29.5625" y="37.625" width="5.375" height="2.6875" fill="#C36D00"/>
<rect x="13.4375" y="40.3125" width="16.125" height="2.6875" fill="#C36D00"/>
<rect x="37.625" y="29.5625" width="2.6875" height="2.6875" fill="#FA8D00"/>
<rect y="13.4375" width="2.6875" height="16.125" fill="#FA8D00"/>
<rect x="40.3125" y="13.4375" width="2.6875" height="16.125" fill="#FA8D00"/>
</g>
<defs>
<clipPath id="clip0_6058_178780">
<rect width="43" height="43" fill="white"/>
</clipPath>
</defs>
</svg>
