<svg width="43" height="43" viewBox="0 0 43 43" fill="none" xmlns="http://www.w3.org/2000/svg">
<g clip-path="url(#clip0_6058_178784)">
<rect x="26.875" width="2.6875" height="2.6875" fill="#FA8D00"/>
<rect x="21.5" width="5.375" height="2.6875" fill="#FFC156"/>
<rect x="13.4375" width="8.0625" height="2.6875" fill="#FFE192"/>
<rect x="8.0625" y="2.6875" width="5.375" height="2.6875" fill="#FFC156"/>
<rect x="29.5625" y="2.6875" width="5.375" height="2.6875" fill="#FA8D00"/>
<rect x="5.375" y="5.375" width="2.6875" height="2.6875" fill="#FFE192"/>
<rect x="34.9375" y="5.375" width="2.6875" height="2.6875" fill="#FA8D00"/>
<rect x="2.6875" y="8.0625" width="2.6875" height="5.375" fill="#FBB939"/>
<rect x="37.625" y="8.0625" width="2.6875" height="5.375" fill="#FA8D00"/>
<rect x="2.6875" y="29.5625" width="2.6875" height="2.6875" fill="#FA8D00"/>
<rect x="2.6875" y="13.4375" width="2.6875" height="16.125" fill="#E51502"/>
<rect x="37.625" y="13.4375" width="2.6875" height="16.125" fill="#E51502"/>
<rect x="34.9375" y="8.0625" width="2.6875" height="2.6875" fill="#D60202"/>
<rect x="34.9375" y="32.25" width="2.6875" height="2.6875" fill="#EFA128"/>
<rect x="5.375" y="32.25" width="2.6875" height="2.6875" fill="#EFA128"/>
<rect x="8.0625" y="34.9375" width="2.6875" height="2.6875" fill="#EFA128"/>
<rect x="13.4375" y="37.625" width="16.125" height="2.6875" fill="#D60202"/>
<rect x="10.75" y="34.9375" width="2.6875" height="2.6875" fill="#D60202"/>
<rect x="8.0625" y="32.25" width="2.6875" height="2.6875" fill="#D60202"/>
<rect x="8.0625" y="8.0625" width="2.6875" height="2.6875" fill="#F7DEAC"/>
<rect x="24.1875" y="5.375" width="2.6875" height="2.6875" fill="#FFDC66"/>
<rect x="18.8125" y="5.375" width="2.6875" height="2.6875" fill="#FBEBC3"/>
<rect x="10.75" y="5.375" width="2.6875" height="2.6875" fill="#E51502"/>
<rect x="13.4375" y="5.375" width="2.6875" height="2.6875" fill="#FBF5CF"/>
<rect x="5.375" y="26.875" width="2.6875" height="5.375" fill="#D60202"/>
<rect x="5.375" y="10.75" width="2.6875" height="5.375" fill="#D60202"/>
<rect x="5.375" y="24.1875" width="2.6875" height="2.6875" fill="#FDF2D1"/>
<rect x="5.375" y="18.8125" width="2.6875" height="2.6875" fill="#FDCB97"/>
<rect x="26.875" y="32.25" width="2.6875" height="2.6875" fill="#F5C095"/>
<rect x="5.375" y="16.125" width="2.6875" height="2.6875" fill="#FDCB97"/>
<rect x="5.375" y="21.5" width="2.6875" height="2.6875" fill="#FDCB97"/>
<rect x="16.125" y="5.375" width="2.6875" height="2.6875" fill="#860F00"/>
<rect x="21.5" y="5.375" width="2.6875" height="2.6875" fill="#860F00"/>
<rect x="29.5625" y="34.9375" width="2.6875" height="2.6875" fill="#D60202"/>
<rect x="32.25" y="34.9375" width="2.6875" height="2.6875" fill="#FFA006"/>
<rect x="32.25" y="32.25" width="2.6875" height="2.6875" fill="#D60202"/>
<rect x="34.9375" y="29.5625" width="2.6875" height="2.6875" fill="#D60202"/>
<rect x="32.25" y="29.5625" width="2.6875" height="2.6875" fill="#FAD6AC"/>
<rect x="32.25" y="21.5" width="2.6875" height="2.6875" fill="#FDE7C0"/>
<rect x="21.5" y="21.5" width="2.6875" height="2.6875" fill="#F7DEAC"/>
<rect x="29.5625" y="32.25" width="2.6875" height="2.6875" fill="#FEF2CA"/>
<rect x="24.1875" y="32.25" width="2.6875" height="2.6875" fill="#F5C095"/>
<rect x="21.5" y="32.25" width="2.6875" height="2.6875" fill="#FCF3CD"/>
<rect x="16.125" y="32.25" width="2.6875" height="2.6875" fill="#FBEABB"/>
<rect x="21.5" y="29.5625" width="2.6875" height="2.6875" fill="#FCF3CD"/>
<rect x="13.4375" y="32.25" width="2.6875" height="2.6875" fill="#FAD6AC"/>
<rect x="10.75" y="24.1875" width="2.6875" height="2.6875" fill="#F7C38A"/>
<rect x="10.75" y="18.8125" width="2.6875" height="2.6875" fill="#F7C38A"/>
<rect x="21.5" y="18.8125" width="2.6875" height="2.6875" fill="#FBF5CE"/>
<rect x="13.4375" y="8.0625" width="2.6875" height="2.6875" fill="#FAD6AC"/>
<rect x="24.1875" y="24.1875" width="2.6875" height="2.6875" fill="#FFDC66"/>
<rect x="10.75" y="32.25" width="2.6875" height="2.6875" fill="#FBF5CF"/>
<rect x="26.875" y="34.9375" width="2.6875" height="2.6875" fill="#FEF2CA"/>
<rect x="21.5" y="34.9375" width="2.6875" height="2.6875" fill="#FFDC66"/>
<rect x="10.75" y="26.875" width="2.6875" height="2.6875" fill="#FBE9BA"/>
<rect x="10.75" y="29.5625" width="2.6875" height="2.6875" fill="#FBF5CF"/>
<rect x="26.875" y="29.5625" width="2.6875" height="2.6875" fill="#FEF2CA"/>
<rect x="24.1875" y="34.9375" width="2.6875" height="2.6875" fill="#F5C095"/>
<rect x="18.8125" y="32.25" width="2.6875" height="2.6875" fill="#F5C095"/>
<rect x="29.5625" y="29.5625" width="2.6875" height="2.6875" fill="#FAD6AC"/>
<rect x="29.5625" y="26.875" width="2.6875" height="2.6875" fill="#FEF2CA"/>
<rect x="32.25" y="16.125" width="2.6875" height="2.6875" fill="#FFA53C"/>
<rect x="32.25" y="18.8125" width="2.6875" height="2.6875" fill="#FAD6AC"/>
<rect x="29.5625" y="8.0625" width="2.6875" height="2.6875" fill="#F9F2CD"/>
<rect x="26.875" y="8.0625" width="2.6875" height="2.6875" fill="#F7DAAE"/>
<rect x="24.1875" y="8.0625" width="2.6875" height="2.6875" fill="#FBEBC3"/>
<rect x="18.8125" y="8.0625" width="2.6875" height="2.6875" fill="#FAD6AC"/>
<rect x="16.125" y="8.0625" width="2.6875" height="2.6875" fill="#F7DEAC"/>
<rect x="21.5" y="8.0625" width="2.6875" height="2.6875" fill="#F7DAAE"/>
<rect x="16.125" y="10.75" width="2.6875" height="2.6875" fill="#FBF5CF"/>
<rect x="10.75" y="10.75" width="2.6875" height="2.6875" fill="#FFDC66"/>
<rect x="13.4375" y="10.75" width="2.6875" height="2.6875" fill="#FBF5CF"/>
<rect x="13.4375" y="13.4375" width="2.6875" height="2.6875" fill="#FFDC66"/>
<rect x="10.75" y="13.4375" width="2.6875" height="2.6875" fill="#FDE7C0"/>
<rect x="16.125" y="13.4375" width="2.6875" height="2.6875" fill="#FBF5CF"/>
<rect x="18.8125" y="21.5" width="2.6875" height="5.375" fill="#FBF5CE"/>
<rect x="21.5" y="10.75" width="2.6875" height="2.6875" fill="#F7DEAC"/>
<rect x="26.875" y="13.4375" width="2.6875" height="2.6875" fill="#FAD6AC"/>
<rect x="24.1875" y="10.75" width="2.6875" height="2.6875" fill="#FFDC66"/>
<rect x="24.1875" y="18.8125" width="2.6875" height="2.6875" fill="#FDE7C0"/>
<rect x="18.8125" y="10.75" width="2.6875" height="2.6875" fill="#F7DAAE"/>
<rect x="18.8125" y="16.125" width="2.6875" height="2.6875" fill="#FFDC66"/>
<rect x="18.8125" y="18.8125" width="2.6875" height="2.6875" fill="#F7DEAC"/>
<rect x="18.8125" y="13.4375" width="2.6875" height="2.6875" fill="#FFDC66"/>
<rect x="10.75" y="8.0625" width="2.6875" height="2.6875" fill="#FBF5CF"/>
<rect x="8.0625" y="10.75" width="2.6875" height="2.6875" fill="#FAD6AC"/>
<rect x="8.0625" y="13.4375" width="2.6875" height="2.6875" fill="#FDCB97"/>
<rect x="10.75" y="16.125" width="2.6875" height="2.6875" fill="#F7DEAC"/>
<rect x="10.75" y="21.5" width="2.6875" height="2.6875" fill="#F5EEBD"/>
<rect x="8.0625" y="16.125" width="2.6875" height="2.6875" fill="#FDCB97"/>
<rect x="8.0625" y="21.5" width="2.6875" height="2.6875" fill="#FDF2D1"/>
<rect x="8.0625" y="24.1875" width="2.6875" height="2.6875" fill="#FFA53C"/>
<rect x="8.0625" y="18.8125" width="2.6875" height="2.6875" fill="#F5EBC1"/>
<rect x="8.0625" y="26.875" width="2.6875" height="2.6875" fill="#FAD6AC"/>
<rect x="29.5625" y="10.75" width="2.6875" height="2.6875" fill="#F7DEAC"/>
<rect x="32.25" y="10.75" width="2.6875" height="2.6875" fill="#F7DAAE"/>
<rect x="32.25" y="13.4375" width="2.6875" height="2.6875" fill="#F9F2CD"/>
<rect x="32.25" y="24.1875" width="2.6875" height="2.6875" fill="#F7DEAC"/>
<rect x="29.5625" y="13.4375" width="2.6875" height="2.6875" fill="#FAD6AC"/>
<rect x="29.5625" y="16.125" width="2.6875" height="2.6875" fill="#F9F2CD"/>
<rect x="26.875" y="21.5" width="5.375" height="2.6875" fill="#FEF2CA"/>
<rect x="29.5625" y="24.1875" width="2.6875" height="2.6875" fill="#FEF2CA"/>
<rect x="26.875" y="24.1875" width="2.6875" height="2.6875" fill="#FAD6AC"/>
<rect x="24.1875" y="26.875" width="2.6875" height="2.6875" fill="#FFDC66"/>
<rect x="24.1875" y="29.5625" width="2.6875" height="2.6875" fill="#FEF2CA"/>
<rect x="16.125" y="26.875" width="2.6875" height="2.6875" fill="#F9F2CD"/>
<rect x="16.125" y="29.5625" width="2.6875" height="2.6875" fill="#E5C693"/>
<rect x="18.8125" y="29.5625" width="2.6875" height="2.6875" fill="#FFDC66"/>
<rect x="18.8125" y="26.875" width="2.6875" height="2.6875" fill="#FBE9BA"/>
<rect x="26.875" y="18.8125" width="2.6875" height="2.6875" fill="#FFDC66"/>
<rect x="29.5625" y="18.8125" width="2.6875" height="2.6875" fill="#FCF3C5"/>
<rect x="13.4375" y="29.5625" width="2.6875" height="2.6875" fill="#F5C095"/>
<rect x="13.4375" y="26.875" width="2.6875" height="2.6875" fill="#F9F2CD"/>
<rect x="21.5" y="26.875" width="2.6875" height="2.6875" fill="#FBF5CE"/>
<rect x="13.4375" y="24.1875" width="2.6875" height="2.6875" fill="#FCF3CD"/>
<rect x="13.4375" y="18.8125" width="2.6875" height="2.6875" fill="#F9F5D3"/>
<rect x="13.4375" y="16.125" width="2.6875" height="2.6875" fill="#FDE7C0"/>
<rect x="13.4375" y="21.5" width="2.6875" height="2.6875" fill="#FFDC66"/>
<rect x="21.5" y="24.1875" width="2.6875" height="2.6875" fill="#FDE7C0"/>
<rect x="16.125" y="16.125" width="2.6875" height="2.6875" fill="#FFDC66"/>
<rect x="16.125" y="21.5" width="2.6875" height="2.6875" fill="#FFDC66"/>
<rect x="24.1875" y="21.5" width="2.6875" height="2.6875" fill="#FEF2CA"/>
<rect x="26.875" y="16.125" width="2.6875" height="2.6875" fill="#FCF3CD"/>
<rect x="24.1875" y="13.4375" width="2.6875" height="2.6875" fill="#FCF3CD"/>
<rect x="21.5" y="13.4375" width="2.6875" height="2.6875" fill="#FCF3CD"/>
<rect x="21.5" y="16.125" width="2.6875" height="2.6875" fill="#FFA53C"/>
<rect x="24.1875" y="16.125" width="2.6875" height="2.6875" fill="#FAD6AC"/>
<rect x="10.75" y="16.125" width="2.6875" height="2.6875" fill="#D60202"/>
<rect x="8.0625" y="16.125" width="2.6875" height="2.6875" fill="#E04433"/>
<rect x="8.0625" y="18.8125" width="2.6875" height="2.6875" fill="#D60202"/>
<rect x="10.75" y="18.8125" width="2.6875" height="2.6875" fill="#D12F1F"/>
<rect x="32.25" y="26.875" width="2.6875" height="2.6875" fill="#FFDC66"/>
<rect x="26.875" y="10.75" width="2.6875" height="2.6875" fill="#FCF3CD"/>
<rect x="16.125" y="5.375" width="2.6875" height="2.6875" fill="#FBF5CF"/>
<rect x="21.5" y="5.375" width="2.6875" height="2.6875" fill="#F7DEAC"/>
<rect x="16.125" y="24.1875" width="2.6875" height="2.6875" fill="#FFA53C"/>
<rect x="16.125" y="18.8125" width="2.6875" height="2.6875" fill="#F7DEAC"/>
<rect x="26.875" y="26.875" width="2.6875" height="2.6875" fill="#FEF2CA"/>
<rect x="24.1875" y="32.25" width="2.6875" height="2.6875" fill="#D12F1F"/>
<rect x="24.1875" y="29.5625" width="2.6875" height="2.6875" fill="#D60202"/>
<rect x="21.5" y="29.5625" width="2.6875" height="2.6875" fill="#E04433"/>
<rect x="21.5" y="32.25" width="2.6875" height="2.6875" fill="#D60202"/>
<rect x="16.125" y="34.9375" width="2.6875" height="2.6875" fill="#E5C693"/>
<rect x="18.8125" y="34.9375" width="2.6875" height="2.6875" fill="#FFDC66"/>
<rect x="13.4375" y="34.9375" width="2.6875" height="2.6875" fill="#FBE9BA"/>
<rect x="8.0625" y="29.5625" width="2.6875" height="2.6875" fill="#FCF2C5"/>
<rect x="34.9375" y="26.875" width="2.6875" height="2.6875" fill="#FFA53C"/>
<rect x="5.375" y="8.0625" width="2.6875" height="2.6875" fill="#D60202"/>
<rect x="26.875" y="5.375" width="2.6875" height="2.6875" fill="#FCF3CD"/>
<rect x="29.5625" y="5.375" width="2.6875" height="2.6875" fill="#E51502"/>
<rect x="32.25" y="8.0625" width="2.6875" height="2.6875" fill="#F7DAAE"/>
<rect x="34.9375" y="10.75" width="2.6875" height="2.6875" fill="#D60202"/>
<rect x="34.9375" y="13.4375" width="2.6875" height="8.0625" fill="#FFDC66"/>
<rect x="34.9375" y="21.5" width="2.6875" height="5.375" fill="#F7DEAC"/>
<rect x="8.0625" y="5.375" width="2.6875" height="2.6875" fill="#D60202"/>
<rect x="32.25" y="5.375" width="2.6875" height="2.6875" fill="#D60202"/>
<rect x="21.5" y="2.6875" width="8.0625" height="2.6875" fill="#D60202"/>
<rect x="13.4375" y="2.6875" width="5.375" height="2.6875" fill="#D60202"/>
<rect x="16.125" y="2.6875" width="5.375" height="2.6875" fill="#D60202"/>
<rect x="2.6875" y="32.25" width="2.6875" height="2.6875" fill="#C36D00"/>
<rect x="37.625" y="32.25" width="2.6875" height="2.6875" fill="#C36D00"/>
<rect x="5.375" y="34.9375" width="2.6875" height="2.6875" fill="#C36D00"/>
<rect x="34.9375" y="34.9375" width="2.6875" height="2.6875" fill="#C36D00"/>
<rect x="8.0625" y="37.625" width="5.375" height="2.6875" fill="#C36D00"/>
<rect x="29.5625" y="37.625" width="5.375" height="2.6875" fill="#C36D00"/>
<rect x="13.4375" y="40.3125" width="16.125" height="2.6875" fill="#C36D00"/>
<rect x="37.625" y="29.5625" width="2.6875" height="2.6875" fill="#FA8D00"/>
<rect y="13.4375" width="2.6875" height="16.125" fill="#FA8D00"/>
<rect x="40.3125" y="13.4375" width="2.6875" height="16.125" fill="#FA8D00"/>
<rect x="21.5" y="18.8125" width="2.6875" height="2.6875" fill="#D60202"/>
<rect x="18.8125" y="18.8125" width="2.6875" height="2.6875" fill="#E04433"/>
<rect x="18.8125" y="21.5" width="2.6875" height="2.6875" fill="#D60202"/>
<rect x="21.5" y="21.5" width="2.6875" height="2.6875" fill="#D12F1F"/>
<rect x="13.4375" y="26.875" width="2.6875" height="2.6875" fill="#D60202"/>
<rect x="10.75" y="26.875" width="2.6875" height="2.6875" fill="#E04433"/>
<rect x="10.75" y="29.5625" width="2.6875" height="2.6875" fill="#860F00"/>
<rect x="13.4375" y="29.5625" width="2.6875" height="2.6875" fill="#D12F1F"/>
<rect x="18.8125" y="8.0625" width="2.6875" height="2.6875" fill="#D60202"/>
<rect x="16.125" y="8.0625" width="2.6875" height="2.6875" fill="#E04433"/>
<rect x="16.125" y="10.75" width="2.6875" height="2.6875" fill="#860F00"/>
<rect x="18.8125" y="10.75" width="2.6875" height="2.6875" fill="#D12F1F"/>
<rect x="29.5625" y="10.75" width="2.6875" height="2.6875" fill="#D60202"/>
<rect x="26.875" y="10.75" width="2.6875" height="2.6875" fill="#E04433"/>
<rect x="26.875" y="13.4375" width="2.6875" height="2.6875" fill="#D60202"/>
<rect x="29.5625" y="13.4375" width="2.6875" height="2.6875" fill="#D12F1F"/>
<rect x="32.25" y="21.5" width="2.6875" height="2.6875" fill="#E04433"/>
<rect x="29.5625" y="21.5" width="2.6875" height="2.6875" fill="#E04433"/>
<rect x="29.5625" y="24.1875" width="2.6875" height="2.6875" fill="#D60202"/>
<rect x="32.25" y="24.1875" width="2.6875" height="2.6875" fill="#E04433"/>
</g>
<defs>
<clipPath id="clip0_6058_178784">
<rect width="43" height="43" fill="white"/>
</clipPath>
</defs>
</svg>
