<svg width="43" height="43" viewBox="0 0 43 43" fill="none" xmlns="http://www.w3.org/2000/svg">
<rect x="2.6875" y="10.75" width="2.6875" height="16.125" fill="#FCF8FF"/>
<rect x="5.375" y="21.5" width="2.6875" height="5.375" fill="#FCF8FF"/>
<rect x="8.0625" y="24.1875" width="2.6875" height="5.375" fill="#FCF8FF"/>
<rect x="29.5625" y="21.5" width="2.6875" height="10.75" fill="#FCF8FF"/>
<rect x="26.875" y="24.1875" width="2.6875" height="10.75" fill="#FCF8FF"/>
<rect x="5.375" y="24.1875" width="2.6875" height="8.0625" fill="#FCF8FF"/>
<rect x="8.0625" y="29.5625" width="18.8125" height="5.375" fill="#FCF8FF"/>
<rect x="10.75" y="32.25" width="16.125" height="5.375" fill="#FCF8FF"/>
<rect x="32.25" y="10.75" width="2.6875" height="18.8125" fill="#FCF8FF"/>
<rect x="34.9375" y="16.125" width="2.6875" height="2.6875" fill="#FCF8FF"/>
<rect x="34.9375" y="24.1875" width="2.6875" height="2.6875" fill="#FCF8FF"/>
<rect x="37.625" y="16.125" width="2.6875" height="10.75" fill="#FCF8FF"/>
<rect x="29.5625" y="5.375" width="2.6875" height="21.5" transform="rotate(90 29.5625 5.375)" fill="#FCF8FF"/>
<rect x="29.5625" y="26.875" width="2.6875" height="21.5" transform="rotate(90 29.5625 26.875)" fill="#FCF8FF"/>
<rect x="10.75" y="8.0625" width="2.6875" height="5.375" transform="rotate(90 10.75 8.0625)" fill="#FCF8FF"/>
<rect x="32.25" y="8.0625" width="2.6875" height="5.375" transform="rotate(90 32.25 8.0625)" fill="#FCF8FF"/>
<rect x="32.25" y="10.75" width="2.6875" height="2.6875" transform="rotate(90 32.25 10.75)" fill="#FCF8FF"/>
<rect x="8.0625" y="10.75" width="2.6875" height="2.6875" transform="rotate(90 8.0625 10.75)" fill="#FCF8FF"/>
<rect x="10.75" y="8.0625" width="16.125" height="18.8125" fill="#90AE31"/>
<rect x="8.0625" y="10.75" width="21.5" height="13.4375" fill="#90AE31"/>
<rect x="5.375" y="13.4375" width="26.875" height="8.0625" fill="#90AE31"/>
<rect x="10.75" y="10.75" width="16.125" height="2.6875" fill="#E0F771"/>
<rect x="8.0625" y="13.4375" width="13.4375" height="2.6875" fill="#E0F771"/>
<rect x="24.1875" y="16.125" width="2.6875" height="2.6875" fill="#F9FFDA"/>
<rect x="26.875" y="13.4375" width="2.6875" height="2.6875" fill="#E0F771"/>
<rect x="29.5625" y="18.8125" width="2.6875" height="2.6875" fill="#667B23"/>
<rect x="26.875" y="21.5" width="2.6875" height="2.6875" fill="#667B23"/>
<rect x="8.0625" y="21.5" width="2.6875" height="2.6875" fill="#667B23"/>
<rect x="5.375" y="18.8125" width="2.6875" height="2.6875" fill="#667B23"/>
<rect x="24.1875" y="24.1875" width="2.6875" height="2.6875" fill="#B8CF3E"/>
<rect x="10.75" y="24.1875" width="2.6875" height="2.6875" fill="#B8CF3E"/>
<rect x="5.375" y="29.5625" width="2.6875" height="2.6875" fill="#84A5B3"/>
<rect x="8.0625" y="32.25" width="2.6875" height="2.6875" fill="#84A5B3"/>
<rect x="10.75" y="34.9375" width="16.125" height="2.6875" fill="#84A5B3"/>
<rect x="26.875" y="32.25" width="2.6875" height="2.6875" fill="#84A5B3"/>
<rect x="29.5625" y="29.5625" width="2.6875" height="2.6875" fill="#84A5B3"/>
<rect x="34.9375" y="24.1875" width="2.6875" height="2.6875" fill="#84A5B3"/>
<rect x="24.1875" y="29.5625" width="5.375" height="2.6875" fill="#C6E2EE"/>
<rect x="10.75" y="32.25" width="16.125" height="2.6875" fill="#C6E2EE"/>
<rect x="13.4375" y="29.5625" width="2.6875" height="2.6875" fill="#C6E2EE"/>
<rect x="8.0625" y="8.0625" width="2.6875" height="2.6875" fill="#C6E2EE"/>
<rect x="5.375" y="10.75" width="2.6875" height="2.6875" fill="#C6E2EE"/>
<rect x="26.875" y="8.0625" width="2.6875" height="2.6875" fill="#C6E2EE"/>
<rect x="29.5625" y="10.75" width="2.6875" height="2.6875" fill="#C6E2EE"/>
<rect x="37.625" y="21.5" width="2.6875" height="5.375" fill="#C6E2EE"/>
<rect x="2.6875" y="24.1875" width="2.6875" height="2.6875" fill="#C6E2EE"/>
<rect x="5.375" y="16.125" width="13.4375" height="2.6875" fill="#E0F771"/>
<rect x="8.0625" y="18.8125" width="8.0625" height="2.6875" fill="#E0F771"/>
<rect x="32.25" y="21.5" width="2.6875" height="5.375" fill="#EBF5F9"/>
<rect x="32.25" y="26.875" width="2.6875" height="2.6875" fill="#C6E2EE"/>
<rect x="13.4375" y="24.1875" width="2.6875" height="8.0625" fill="#293B42"/>
<rect x="13.4375" y="29.5625" width="2.6875" height="8.0625" fill="#F5BC5A"/>
<rect x="16.125" y="32.25" width="2.6875" height="2.6875" fill="#D99829"/>
<rect x="13.4375" y="29.5625" width="2.6875" height="2.6875" fill="#D99829"/>
<rect x="16.125" y="34.9375" width="2.6875" height="2.6875" fill="#F5BC5A"/>
<rect x="10.75" y="32.25" width="2.6875" height="2.6875" fill="#D99829"/>
<rect x="10.75" y="34.9375" width="2.6875" height="2.6875" fill="#F5BC5A"/>
</svg>
