<svg width="43" height="43" viewBox="0 0 43 43" fill="none" xmlns="http://www.w3.org/2000/svg">
<rect x="5.375" y="5.375" width="32.25" height="29.5625" fill="#E6C6AA"/>
<rect x="8.0625" y="34.9375" width="26.875" height="5.375" fill="#6E3D0D"/>
<rect x="5.375" y="34.9375" width="2.6875" height="2.6875" fill="#6E3D0D"/>
<rect x="8.0625" y="32.25" width="2.6875" height="2.6875" fill="#B3651D"/>
<rect x="32.25" y="32.25" width="2.6875" height="2.6875" fill="#B3651D"/>
<rect x="34.9375" y="34.9375" width="2.6875" height="2.6875" fill="#6E3D0D"/>
<rect x="34.9375" y="16.125" width="2.6875" height="16.125" fill="#B3651D"/>
<rect x="5.375" y="16.125" width="2.6875" height="16.125" fill="#B3651D"/>
<rect x="2.6875" y="8.0625" width="2.6875" height="8.0625" fill="#B05C07"/>
<rect x="2.6875" y="13.4375" width="2.6875" height="2.6875" fill="#B3651D"/>
<rect x="37.625" y="8.0625" width="2.6875" height="8.0625" fill="#B05C07"/>
<rect x="5.375" y="5.375" width="2.6875" height="2.6875" fill="#B05C07"/>
<rect x="34.9375" y="5.375" width="2.6875" height="2.6875" fill="#B05C07"/>
<rect x="18.8125" y="5.375" width="5.375" height="2.6875" fill="#B05C07"/>
<rect x="8.0625" y="2.6875" width="10.75" height="2.6875" fill="#B05C07"/>
<rect x="24.1875" y="2.6875" width="10.75" height="2.6875" fill="#B05C07"/>
<rect x="10.75" y="34.9375" width="2.6875" height="2.6875" fill="#B3651D"/>
<rect x="13.4375" y="34.9375" width="18.8125" height="2.6875" fill="#B3651D"/>
<rect x="24.1875" y="34.9375" width="8.0625" height="2.6875" fill="#DB7C24"/>
<rect x="32.25" y="32.25" width="2.6875" height="2.6875" fill="#DB7C24"/>
<rect x="34.9375" y="29.5625" width="2.6875" height="2.6875" fill="#DB7C24"/>
<rect x="5.375" y="32.25" width="2.6875" height="2.6875" fill="#6E3D0D"/>
<rect x="34.9375" y="32.25" width="2.6875" height="2.6875" fill="#6E3D0D"/>
<rect x="8.0625" y="24.1875" width="2.6875" height="2.6875" fill="#73BE23"/>
<rect x="13.4375" y="8.0625" width="2.6875" height="2.6875" fill="#73BE23"/>
<rect x="16.125" y="8.0625" width="2.6875" height="2.6875" fill="#65AF33"/>
<rect x="18.8125" y="10.75" width="2.6875" height="2.6875" fill="#73BE23"/>
<rect x="18.8125" y="13.4375" width="2.6875" height="2.6875" fill="#D9F459"/>
<rect x="16.125" y="10.75" width="2.6875" height="2.6875" fill="#D9F459"/>
<rect x="13.4375" y="10.75" width="2.6875" height="2.6875" fill="#D9F459"/>
<rect x="13.4375" y="26.875" width="2.6875" height="2.6875" fill="#D9F459"/>
<rect x="16.125" y="26.875" width="2.6875" height="2.6875" fill="#D9F459"/>
<rect x="18.8125" y="26.875" width="2.6875" height="2.6875" fill="#CA8035"/>
<rect x="16.125" y="32.25" width="2.6875" height="2.6875" fill="#DF974E"/>
<rect x="10.75" y="8.0625" width="2.6875" height="2.6875" fill="#DF974E"/>
<rect x="18.8125" y="24.1875" width="2.6875" height="2.6875" fill="#D9F459"/>
<rect x="21.5" y="16.125" width="2.6875" height="2.6875" fill="#F6F8A5"/>
<rect x="21.5" y="18.8125" width="2.6875" height="2.6875" fill="#73BE23"/>
<rect x="21.5" y="21.5" width="2.6875" height="2.6875" fill="#D9F459"/>
<rect x="29.5625" y="18.8125" width="2.6875" height="2.6875" fill="#73BE23"/>
<rect x="32.25" y="18.8125" width="2.6875" height="2.6875" fill="#F6F8A5"/>
<rect x="8.0625" y="26.875" width="2.6875" height="2.6875" fill="#65AF33"/>
<rect x="13.4375" y="29.5625" width="2.6875" height="2.6875" fill="#65AF33"/>
<rect x="18.8125" y="29.5625" width="2.6875" height="2.6875" fill="#65AF33"/>
<rect x="10.75" y="10.75" width="2.6875" height="2.6875" fill="#65AF33"/>
<rect x="10.75" y="26.875" width="2.6875" height="2.6875" fill="#73BE23"/>
<rect x="16.125" y="29.5625" width="2.6875" height="2.6875" fill="#73BE23"/>
<rect x="32.25" y="21.5" width="2.6875" height="2.6875" fill="#73BE23"/>
<rect x="34.9375" y="10.75" width="2.6875" height="2.6875" fill="#73BE23"/>
<rect x="34.9375" y="13.4375" width="2.6875" height="2.6875" fill="#65AF33"/>
<rect x="8.0625" y="13.4375" width="2.6875" height="2.6875" fill="#73BE23"/>
<rect x="8.0625" y="10.75" width="2.6875" height="2.6875" fill="#73BE23"/>
<rect x="8.0625" y="18.8125" width="2.6875" height="2.6875" fill="#DF2530"/>
<rect x="10.75" y="18.8125" width="2.6875" height="2.6875" fill="#F41530"/>
<rect x="10.75" y="21.5" width="2.6875" height="2.6875" fill="#F41530"/>
<rect x="13.4375" y="21.5" width="2.6875" height="2.6875" fill="#FDCACF"/>
<rect x="16.125" y="21.5" width="2.6875" height="2.6875" fill="#F41530"/>
<rect x="24.1875" y="16.125" width="2.6875" height="2.6875" fill="#F41530"/>
<rect x="29.5625" y="16.125" width="2.6875" height="2.6875" fill="#733423"/>
<rect x="29.5625" y="13.4375" width="2.6875" height="2.6875" fill="#F41530"/>
<rect x="26.875" y="13.4375" width="2.6875" height="2.6875" fill="#F41530"/>
<rect x="10.75" y="16.125" width="2.6875" height="2.6875" fill="#733423"/>
<rect x="26.875" y="10.75" width="2.6875" height="2.6875" fill="#733423"/>
<rect x="16.125" y="16.125" width="2.6875" height="2.6875" fill="#DFF19B"/>
<rect x="26.875" y="16.125" width="2.6875" height="2.6875" fill="#F37C8B"/>
<rect x="16.125" y="18.8125" width="2.6875" height="2.6875" fill="#FDCACF"/>
<rect x="24.1875" y="13.4375" width="2.6875" height="2.6875" fill="#FDCACF"/>
<rect x="8.0625" y="16.125" width="2.6875" height="2.6875" fill="#DF2530"/>
<rect x="24.1875" y="21.5" width="2.6875" height="2.6875" fill="#DF2530"/>
<rect x="26.875" y="21.5" width="2.6875" height="2.6875" fill="#F41530"/>
<rect x="24.1875" y="24.1875" width="2.6875" height="2.6875" fill="#F37C8B"/>
<rect x="13.4375" y="16.125" width="2.6875" height="2.6875" fill="#F37C8B"/>
<rect x="24.1875" y="10.75" width="2.6875" height="2.6875" fill="#F37C8B"/>
<rect x="29.5625" y="10.75" width="2.6875" height="2.6875" fill="#F37C8B"/>
<rect x="13.4375" y="18.8125" width="2.6875" height="2.6875" fill="#F37C8B"/>
<rect x="24.1875" y="26.875" width="2.6875" height="2.6875" fill="#F37C8B"/>
<rect x="26.875" y="26.875" width="2.6875" height="2.6875" fill="#733423"/>
<rect x="24.1875" y="29.5625" width="2.6875" height="2.6875" fill="#F41530"/>
<rect x="26.875" y="29.5625" width="2.6875" height="2.6875" fill="#EE7F86"/>
<rect x="29.5625" y="26.875" width="2.6875" height="2.6875" fill="#F1F5A6"/>
<rect x="26.875" y="24.1875" width="2.6875" height="2.6875" fill="#F37C8B"/>
<rect x="29.5625" y="24.1875" width="2.6875" height="2.6875" fill="#DF2530"/>
<rect x="29.5625" y="21.5" width="2.6875" height="2.6875" fill="#DF2530"/>
<rect x="32.25" y="24.1875" width="2.6875" height="2.6875" fill="#DF2530"/>
<rect x="32.25" y="26.875" width="2.6875" height="2.6875" fill="#DF2530"/>
<rect x="32.25" y="29.5625" width="2.6875" height="2.6875" fill="#DF2530"/>
<rect x="29.5625" y="29.5625" width="2.6875" height="2.6875" fill="#DF2530"/>
<rect x="29.5625" y="32.25" width="2.6875" height="2.6875" fill="#880C1F"/>
<rect x="21.5" y="29.5625" width="2.6875" height="2.6875" fill="#DF2530"/>
<rect x="26.875" y="32.25" width="2.6875" height="2.6875" fill="#880C1F"/>
<rect x="24.1875" y="32.25" width="2.6875" height="2.6875" fill="#CA0C2A"/>
<rect x="21.5" y="26.875" width="2.6875" height="2.6875" fill="#DF2530"/>
<rect x="21.5" y="24.1875" width="2.6875" height="2.6875" fill="#DF2530"/>
<rect x="13.4375" y="13.4375" width="2.6875" height="2.6875" fill="#F41530"/>
<rect x="10.75" y="13.4375" width="2.6875" height="2.6875" fill="#F41530"/>
<rect x="16.125" y="13.4375" width="2.6875" height="2.6875" fill="#F41530"/>
<rect x="26.875" y="8.0625" width="2.6875" height="2.6875" fill="#F41530"/>
<rect x="24.1875" y="8.0625" width="2.6875" height="2.6875" fill="#F41530"/>
<rect x="21.5" y="10.75" width="2.6875" height="2.6875" fill="#F41530"/>
<rect x="29.5625" y="8.0625" width="2.6875" height="2.6875" fill="#F41530"/>
<rect x="32.25" y="10.75" width="2.6875" height="2.6875" fill="#DF2530"/>
<rect x="32.25" y="13.4375" width="2.6875" height="5.375" fill="#B20B25"/>
<rect x="26.875" y="18.8125" width="2.6875" height="2.6875" fill="#880C1F"/>
<rect x="24.1875" y="18.8125" width="2.6875" height="2.6875" fill="#880C1F"/>
<rect x="21.5" y="13.4375" width="2.6875" height="2.6875" fill="#F41530"/>
<rect x="18.8125" y="16.125" width="2.6875" height="2.6875" fill="#DF2530"/>
<rect x="18.8125" y="18.8125" width="2.6875" height="2.6875" fill="#B20B25"/>
<rect x="13.4375" y="24.1875" width="2.6875" height="2.6875" fill="#880C1F"/>
<rect x="16.125" y="24.1875" width="2.6875" height="2.6875" fill="#880C1F"/>
<rect x="10.75" y="24.1875" width="2.6875" height="2.6875" fill="#B20B25"/>
<rect x="8.0625" y="21.5" width="2.6875" height="2.6875" fill="#B20B25"/>
<rect x="18.8125" y="21.5" width="2.6875" height="2.6875" fill="#B20B25"/>
<rect x="2.6875" y="16.125" width="2.6875" height="2.6875" fill="#86480D"/>
<rect x="37.625" y="16.125" width="2.6875" height="2.6875" fill="#86480D"/>
<rect x="37.625" y="13.4375" width="2.6875" height="2.6875" fill="#B3651D"/>
</svg>
