<svg width="43" height="43" viewBox="0 0 43 43" fill="none" xmlns="http://www.w3.org/2000/svg">
<rect x="10.75" y="8.0625" width="21.5" height="26.875" fill="#E51601"/>
<rect x="10.75" y="8.0625" width="21.5" height="10.75" fill="#A50F00"/>
<rect x="32.25" y="16.125" width="5.375" height="16.125" fill="#E51601"/>
<rect x="32.25" y="13.4375" width="2.6875" height="2.6875" fill="#E51601"/>
<rect x="29.5625" y="10.75" width="2.6875" height="24.1875" fill="#E51601"/>
<rect x="26.875" y="8.0625" width="2.6875" height="2.6875" fill="#E51601"/>
<rect x="32.25" y="29.5625" width="2.6875" height="5.375" fill="#E51601"/>
<rect width="2.6875" height="2.6875" transform="matrix(1 0 0 -1 8.0625 8.0625)" fill="#005700"/>
<rect width="5.375" height="2.6875" transform="matrix(1 0 0 -1 10.75 5.375)" fill="#005700"/>
<rect width="2.6875" height="2.6875" transform="matrix(1 0 0 -1 16.125 8.0625)" fill="#005700"/>
<rect width="2.6875" height="2.6875" transform="matrix(1 0 0 -1 10.75 8.0625)" fill="#72C978"/>
<rect width="2.6875" height="2.6875" transform="matrix(1 0 0 -1 13.4375 13.4375)" fill="#72C978"/>
<rect width="2.6875" height="2.6875" transform="matrix(1 0 0 -1 18.8125 8.0625)" fill="#72C978"/>
<rect width="2.6875" height="2.6875" transform="matrix(1 0 0 -1 21.5 5.375)" fill="#72C978"/>
<rect width="2.6875" height="2.6875" transform="matrix(1 0 0 -1 26.875 8.0625)" fill="#72C978"/>
<rect width="2.6875" height="2.6875" transform="matrix(1 0 0 -1 24.1875 8.0625)" fill="#239B2D"/>
<rect width="2.6875" height="2.6875" transform="matrix(1 0 0 -1 24.1875 13.4375)" fill="#239B2D"/>
<rect width="2.6875" height="2.6875" transform="matrix(1 0 0 -1 18.8125 10.75)" fill="#239B2D"/>
<rect width="2.6875" height="2.6875" transform="matrix(1 0 0 -1 16.125 13.4375)" fill="#239B2D"/>
<rect width="2.6875" height="2.6875" transform="matrix(1 0 0 -1 13.4375 8.0625)" fill="#239B2D"/>
<rect width="2.6875" height="2.6875" transform="matrix(1 0 0 -1 18.8125 5.375)" fill="#005700"/>
<rect width="2.6875" height="2.6875" transform="matrix(1 0 0 -1 21.5 8.0625)" fill="#005700"/>
<rect width="5.375" height="2.6875" transform="matrix(1 0 0 -1 24.1875 5.375)" fill="#005700"/>
<rect width="2.6875" height="2.6875" transform="matrix(1 0 0 -1 29.5625 8.0625)" fill="#005700"/>
<rect width="8.0625" height="2.6875" transform="matrix(1 0 0 -1 10.75 10.75)" fill="#005700"/>
<rect width="2.6875" height="2.6875" transform="matrix(1 0 0 -1 10.75 13.4375)" fill="#005700"/>
<rect width="5.375" height="2.6875" transform="matrix(1 0 0 -1 13.4375 16.125)" fill="#005700"/>
<rect width="5.375" height="2.6875" transform="matrix(1 0 0 -1 18.8125 13.4375)" fill="#005700"/>
<rect width="2.6875" height="2.6875" transform="matrix(1 0 0 -1 24.1875 16.125)" fill="#005700"/>
<rect width="2.6875" height="2.6875" transform="matrix(1 0 0 -1 26.875 13.4375)" fill="#005700"/>
<rect width="8.0625" height="2.6875" transform="matrix(1 0 0 -1 21.5 10.75)" fill="#005700"/>
<rect x="40.3125" y="29.5625" width="2.6875" height="13.4375" transform="rotate(180 40.3125 29.5625)" fill="#A50F00"/>
<rect x="37.625" y="16.125" width="2.6875" height="2.6875" transform="rotate(180 37.625 16.125)" fill="#A50F00"/>
<rect x="34.9375" y="13.4375" width="2.6875" height="2.6875" transform="rotate(180 34.9375 13.4375)" fill="#A50F00"/>
<rect x="8.0625" y="10.75" width="2.6875" height="2.6875" fill="#FF6358"/>
<rect x="8.0625" y="13.4375" width="2.6875" height="2.6875" fill="#FF6358"/>
<rect x="5.375" y="26.875" width="2.6875" height="5.375" fill="#E51601"/>
<rect x="8.0625" y="24.1875" width="2.6875" height="10.75" fill="#E51601"/>
<rect x="5.375" y="21.5" width="2.6875" height="5.375" fill="#FF6358"/>
<rect x="10.75" y="24.1875" width="21.5" height="2.6875" fill="#FF6358"/>
<rect x="8.0625" y="21.5" width="26.875" height="2.6875" fill="#FF6358"/>
<rect x="16.125" y="18.8125" width="18.8125" height="2.6875" fill="#FF6358"/>
<rect x="26.875" y="16.125" width="8.0625" height="2.6875" fill="#FF6358"/>
<rect x="29.5625" y="13.4375" width="2.6875" height="2.6875" fill="#FF6358"/>
<rect x="18.8125" y="16.125" width="5.375" height="2.6875" fill="#FF6358"/>
<rect width="2.6875" height="13.4375" transform="matrix(1 0 0 -1 2.6875 29.5625)" fill="#A50F00"/>
<rect width="2.6875" height="2.6875" transform="matrix(1 0 0 -1 5.375 16.125)" fill="#A50F00"/>
<rect width="2.6875" height="2.6875" transform="matrix(1 0 0 -1 8.0625 13.4375)" fill="#A50F00"/>
<rect x="5.375" y="16.125" width="2.6875" height="5.375" fill="#FF6358"/>
<rect x="5.375" y="21.5" width="2.6875" height="8.0625" fill="#E51601"/>
<rect x="8.0625" y="18.8125" width="8.0625" height="2.6875" fill="#FFBDB4"/>
<rect x="10.75" y="21.5" width="5.375" height="2.6875" fill="#FFBDB4"/>
<rect x="16.125" y="18.8125" width="2.6875" height="2.6875" fill="#FFBDB4"/>
<rect x="8.0625" y="16.125" width="8.0625" height="2.6875" fill="#FFBDB4"/>
<rect x="10.75" y="13.4375" width="2.6875" height="2.6875" fill="#FFBDB4"/>
<rect width="16.125" height="2.6875" transform="matrix(1 0 0 -1 13.4375 37.625)" fill="#A50F00"/>
<rect width="5.375" height="2.6875" transform="matrix(1 0 0 -1 8.0625 34.9375)" fill="#A50F00"/>
<rect width="2.6875" height="2.6875" transform="matrix(1 0 0 -1 5.375 32.25)" fill="#A50F00"/>
<rect x="34.9375" y="34.9375" width="5.375" height="2.6875" transform="rotate(180 34.9375 34.9375)" fill="#A50F00"/>
<rect x="37.625" y="32.25" width="2.6875" height="2.6875" transform="rotate(180 37.625 32.25)" fill="#A50F00"/>
<rect x="32.25" y="18.8125" width="2.6875" height="2.6875" fill="#FE422F"/>
<rect x="32.25" y="21.5" width="2.6875" height="2.6875" fill="#FE422F"/>
<rect x="26.875" y="24.1875" width="5.375" height="2.6875" fill="#FE422F"/>
<rect x="21.5" y="24.1875" width="5.375" height="2.6875" fill="#FE503E"/>
<rect x="18.8125" y="24.1875" width="2.6875" height="2.6875" fill="#FE5443"/>
<rect x="29.5625" y="21.5" width="2.6875" height="2.6875" fill="#FE5443"/>
<rect x="34.9375" y="26.875" width="2.6875" height="2.6875" fill="#C61301"/>
<rect x="32.25" y="29.5625" width="2.6875" height="2.6875" fill="#C61301"/>
<rect x="21.5" y="32.25" width="8.0625" height="2.6875" fill="#C61301"/>
<rect x="13.4375" y="32.25" width="8.0625" height="2.6875" fill="#D51401"/>
<rect x="8.0625" y="29.5625" width="2.6875" height="2.6875" fill="#D51401"/>
<rect x="5.375" y="26.875" width="2.6875" height="2.6875" fill="#D51401"/>
</svg>
