<svg width="43" height="43" viewBox="0 0 43 43" fill="none" xmlns="http://www.w3.org/2000/svg">
<path d="M26.875 8.0625H32.25V10.75H34.9375V16.125H37.625V26.875H34.9375V32.25H32.25V34.9375H26.875V37.625H16.125V34.9375H10.75V32.25H8.0625V26.875H5.375V16.125H8.0625V10.75H10.75V8.0625H16.125V5.375H26.875V8.0625Z" fill="#F05A02"/>
<rect x="13.4375" y="5.375" width="2.6875" height="2.6875" fill="#C73C02" fill-opacity="0.7"/>
<rect x="5.375" y="13.4375" width="2.6875" height="2.6875" fill="#A63302"/>
<rect x="5.375" y="26.875" width="2.6875" height="2.6875" fill="#C73C02" fill-opacity="0.7"/>
<rect x="13.4375" y="34.9375" width="2.6875" height="2.6875" fill="#C73C02" fill-opacity="0.7"/>
<rect x="34.9375" y="26.875" width="2.6875" height="2.6875" fill="#C73C02" fill-opacity="0.7"/>
<rect x="26.875" y="34.9375" width="2.6875" height="2.6875" fill="#C73C02" fill-opacity="0.7"/>
<rect x="34.9375" y="13.4375" width="2.6875" height="2.6875" fill="#C73C02" fill-opacity="0.7"/>
<rect x="26.875" y="5.375" width="2.6875" height="2.6875" fill="#C73C02" fill-opacity="0.7"/>
<rect x="16.125" y="5.375" width="10.75" height="2.6875" fill="#E24E02"/>
<rect x="16.125" y="34.9375" width="10.75" height="2.6875" fill="#A63302"/>
<rect x="10.75" y="8.0625" width="5.375" height="2.6875" fill="#E24E02"/>
<rect x="26.875" y="8.0625" width="5.375" height="2.6875" fill="#E24E02"/>
<rect x="10.75" y="32.25" width="2.6875" height="2.6875" fill="#A63302"/>
<rect x="29.5625" y="32.25" width="2.6875" height="2.6875" fill="#A63302"/>
<rect x="10.75" y="10.75" width="5.375" height="2.6875" transform="rotate(90 10.75 10.75)" fill="#E24E02"/>
<rect x="10.75" y="26.875" width="2.6875" height="2.6875" transform="rotate(90 10.75 26.875)" fill="#D54200"/>
<rect x="34.9375" y="26.875" width="2.6875" height="2.6875" transform="rotate(90 34.9375 26.875)" fill="#D54200"/>
<rect x="34.9375" y="10.75" width="5.375" height="2.6875" transform="rotate(90 34.9375 10.75)" fill="#E24E02"/>
<rect x="10.75" y="29.5625" width="2.6875" height="2.6875" transform="rotate(90 10.75 29.5625)" fill="#A63302"/>
<rect x="34.9375" y="29.5625" width="2.6875" height="2.6875" transform="rotate(90 34.9375 29.5625)" fill="#A63302"/>
<rect x="8.0625" y="16.125" width="10.75" height="2.6875" transform="rotate(90 8.0625 16.125)" fill="#F05A02"/>
<rect x="37.625" y="16.125" width="10.75" height="2.6875" transform="rotate(90 37.625 16.125)" fill="#E24E02"/>
<rect x="8.0625" y="24.1875" width="2.6875" height="2.6875" fill="#E74A00"/>
<rect x="13.4375" y="32.25" width="2.6875" height="2.6875" fill="#D54200"/>
<rect x="13.4375" y="29.5625" width="16.125" height="2.6875" fill="#D54200"/>
<rect x="16.125" y="32.25" width="10.75" height="2.6875" fill="#D54200"/>
<rect x="32.25" y="24.1875" width="2.6875" height="2.6875" fill="#E74A00"/>
<rect x="26.875" y="32.25" width="2.6875" height="2.6875" fill="#D54200"/>
<rect x="10.75" y="26.875" width="2.6875" height="5.375" fill="#D54200"/>
<rect x="29.5625" y="26.875" width="2.6875" height="5.375" fill="#D54200"/>
<rect x="13.4375" y="10.75" width="16.125" height="2.6875" fill="#FF812E"/>
<rect x="16.125" y="13.4375" width="10.75" height="2.6875" fill="#FF812E"/>
<rect x="18.8125" y="10.75" width="5.375" height="2.6875" fill="#FDB868"/>
<rect x="16.125" y="8.0625" width="10.75" height="2.6875" fill="#FF812E"/>
<rect x="8.0625" y="24.1875" width="2.6875" height="2.6875" transform="rotate(90 8.0625 24.1875)" fill="#A63302"/>
<rect x="37.625" y="24.1875" width="2.6875" height="2.6875" transform="rotate(90 37.625 24.1875)" fill="#A63302"/>
<rect x="29.5625" y="13.4375" width="5.375" height="2.6875" fill="#9F1E20"/>
<rect x="32.25" y="21.5" width="5.375" height="2.6875" fill="#9F1E20"/>
<rect x="18.8125" y="10.75" width="2.6875" height="2.6875" transform="rotate(90 18.8125 10.75)" fill="#9F1E20"/>
<rect x="13.4375" y="10.75" width="2.6875" height="2.6875" transform="rotate(90 13.4375 10.75)" fill="#FD650C"/>
<rect x="16.125" y="16.125" width="2.6875" height="2.6875" transform="rotate(90 16.125 16.125)" fill="#FD7C30"/>
<rect x="16.125" y="18.8125" width="2.6875" height="2.6875" transform="rotate(90 16.125 18.8125)" fill="#FD7C30"/>
<rect x="29.5625" y="26.875" width="2.6875" height="2.6875" transform="rotate(90 29.5625 26.875)" fill="#F05A02"/>
<rect x="21.5" y="5.375" width="5.375" height="2.6875" transform="rotate(90 21.5 5.375)" fill="#9F1E20"/>
<rect x="24.1875" y="26.875" width="2.6875" height="2.6875" fill="#9F1E20"/>
<rect x="26.875" y="24.1875" width="5.375" height="2.6875" fill="#9F1E20"/>
<rect x="13.4375" y="16.125" width="2.6875" height="2.6875" transform="rotate(-90 13.4375 16.125)" fill="#9F1E20"/>
<rect x="8.0625" y="13.4375" width="2.6875" height="2.6875" transform="rotate(-90 8.0625 13.4375)" fill="#741819"/>
<rect x="8.0625" y="16.125" width="2.6875" height="2.6875" transform="rotate(-90 8.0625 16.125)" fill="#741819"/>
<rect x="10.75" y="21.5" width="2.6875" height="2.6875" transform="rotate(-90 10.75 21.5)" fill="#741819"/>
<rect x="13.4375" y="24.1875" width="2.6875" height="2.6875" transform="rotate(-90 13.4375 24.1875)" fill="#741819"/>
<rect x="16.125" y="26.875" width="2.6875" height="2.6875" transform="rotate(-90 16.125 26.875)" fill="#741819"/>
<rect x="18.8125" y="29.5625" width="2.6875" height="5.375" transform="rotate(-90 18.8125 29.5625)" fill="#741819"/>
<rect x="26.875" y="32.25" width="2.6875" height="5.375" transform="rotate(-90 26.875 32.25)" fill="#741819"/>
<rect x="24.1875" y="32.25" width="2.6875" height="2.6875" transform="rotate(-90 24.1875 32.25)" fill="#741819"/>
<rect x="8.0625" y="16.125" width="2.6875" height="2.6875" transform="rotate(-90 8.0625 16.125)" fill="#591213"/>
<rect x="24.1875" y="29.5625" width="2.6875" height="2.6875" transform="rotate(90 24.1875 29.5625)" fill="#9F1E20"/>
<rect x="8.0625" y="16.125" width="5.375" height="2.6875" fill="#9F1E20"/>
<rect x="5.375" y="18.8125" width="2.6875" height="2.6875" fill="#9F1E20"/>
<rect width="5.375" height="2.6875" transform="matrix(4.37114e-08 -1 -1 -4.37114e-08 21.5 37.625)" fill="#9F1E20"/>
<rect x="24.1875" y="16.125" width="5.375" height="2.6875" fill="#9F1E20"/>
<rect x="18.8125" y="18.8125" width="5.375" height="2.6875" fill="#9F1E20"/>
<rect x="16.125" y="21.5" width="5.375" height="2.6875" fill="#9F1E20"/>
<rect x="13.4375" y="29.5625" width="5.375" height="2.6875" transform="rotate(-90 13.4375 29.5625)" fill="#9F1E20"/>
<rect x="10.75" y="32.25" width="2.6875" height="2.6875" transform="rotate(-90 10.75 32.25)" fill="#9F1E20"/>
<rect x="10.75" y="34.9375" width="2.6875" height="2.6875" transform="rotate(-90 10.75 34.9375)" fill="#9F1E20"/>
</svg>
