<svg width="43" height="43" viewBox="0 0 43 43" fill="none" xmlns="http://www.w3.org/2000/svg">
<rect x="8.0625" y="5.375" width="8.0625" height="2.6875" fill="#A28401"/>
<path d="M18.8125 13.4375H24.1875V8.0625H37.625V26.875H32.25V32.25H26.875V34.9375H16.125V32.25H10.75V26.875H8.0625V24.1875H5.375V10.75H8.0625V8.0625H18.8125V13.4375Z" fill="#EBC000"/>
<rect x="5.375" y="8.0625" width="2.6875" height="2.6875" fill="#A28401"/>
<rect x="5.375" y="24.1875" width="2.6875" height="2.6875" fill="#A28401"/>
<rect x="8.0625" y="26.875" width="2.6875" height="2.6875" fill="#A28401"/>
<rect x="10.75" y="29.5625" width="2.6875" height="2.6875" fill="#A28401"/>
<rect x="13.4375" y="32.25" width="2.6875" height="2.6875" fill="#A28401"/>
<rect x="16.125" y="34.9375" width="2.6875" height="2.6875" fill="#A28401"/>
<rect x="24.1875" y="34.9375" width="2.6875" height="2.6875" fill="#A28401"/>
<rect x="18.8125" y="37.625" width="5.375" height="2.6875" fill="#A28401"/>
<rect x="18.8125" y="34.9375" width="5.375" height="2.6875" fill="#EBC000"/>
<rect x="26.875" y="32.25" width="2.6875" height="2.6875" fill="#A28401"/>
<rect x="29.5625" y="29.5625" width="2.6875" height="2.6875" fill="#A28401"/>
<rect x="32.25" y="26.875" width="2.6875" height="2.6875" fill="#A28401"/>
<rect x="34.9375" y="24.1875" width="2.6875" height="2.6875" fill="#A28401"/>
<rect x="34.9375" y="8.0625" width="2.6875" height="2.6875" fill="#A28401"/>
<rect x="2.6875" y="10.75" width="2.6875" height="13.4375" fill="#A28401"/>
<rect x="37.625" y="10.75" width="2.6875" height="13.4375" fill="#A28401"/>
<rect x="16.125" y="8.0625" width="2.6875" height="2.6875" fill="#A28401"/>
<rect x="18.8125" y="10.75" width="5.375" height="2.6875" fill="#A28401"/>
<rect x="24.1875" y="8.0625" width="2.6875" height="2.6875" fill="#A28401"/>
<rect x="26.875" y="5.375" width="8.0625" height="2.6875" fill="#A28401"/>
<rect x="8.0625" y="10.75" width="8.0625" height="5.375" fill="#FFF675"/>
<rect x="26.875" y="10.75" width="8.0625" height="5.375" fill="#FFF675"/>
<rect x="10.75" y="18.8125" width="21.5" height="5.375" fill="#FFDD1F"/>
<rect x="13.4375" y="21.5" width="16.125" height="5.375" fill="#FFDD1F"/>
<rect x="16.125" y="24.1875" width="10.75" height="5.375" fill="#FFDD1F"/>
<rect x="16.125" y="16.125" width="10.75" height="5.375" fill="#FFF675"/>
<rect x="8.0625" y="16.125" width="5.375" height="5.375" fill="#FFDD1F"/>
<rect x="29.5625" y="16.125" width="5.375" height="5.375" fill="#FFDD1F"/>
<rect x="10.75" y="13.4375" width="21.5" height="5.375" fill="#FFF675"/>
<rect x="10.75" y="13.4375" width="5.375" height="2.6875" fill="white"/>
<rect x="26.875" y="13.4375" width="5.375" height="2.6875" fill="white"/>
</svg>
