<svg width="43" height="43" viewBox="0 0 43 43" fill="none" xmlns="http://www.w3.org/2000/svg">
<rect x="21.5" y="21.5" width="2.6875" height="2.6875" fill="#F8CAAF"/>
<rect x="21.5" y="16.125" width="2.6875" height="2.6875" fill="#F8CAAF"/>
<rect x="18.8125" y="18.8125" width="2.6875" height="2.6875" fill="#F8CAAF"/>
<rect x="16.125" y="21.5" width="2.6875" height="2.6875" fill="#F8CAAF"/>
<rect x="18.8125" y="24.1875" width="2.6875" height="2.6875" fill="#F8CAAF"/>
<rect x="21.5" y="26.875" width="2.6875" height="2.6875" fill="#F8CAAF"/>
<rect x="24.1875" y="24.1875" width="2.6875" height="2.6875" fill="#F8CAAF"/>
<rect x="24.1875" y="18.8125" width="2.6875" height="2.6875" fill="#F8CAAF"/>
<rect x="26.875" y="21.5" width="2.6875" height="2.6875" fill="#F8CAAF"/>
<rect x="32.25" y="5.375" width="2.6875" height="2.6875" fill="#CD7D0E"/>
<rect x="8.0625" y="32.25" width="2.6875" height="2.6875" fill="#CD7D0E"/>
<rect x="5.375" y="2.6875" width="2.6875" height="2.6875" fill="#F8CAAF"/>
<rect x="29.5625" y="29.5625" width="2.6875" height="2.6875" fill="#F8CAAF"/>
<rect x="10.75" y="2.6875" width="2.6875" height="2.6875" fill="#F8CAAF"/>
<rect x="34.9375" y="29.5625" width="2.6875" height="2.6875" fill="#F8CAAF"/>
<rect x="5.375" y="8.0625" width="2.6875" height="2.6875" fill="#F8CAAF"/>
<rect x="29.5625" y="34.9375" width="2.6875" height="2.6875" fill="#F8CAAF"/>
<rect x="10.75" y="8.0625" width="2.6875" height="2.6875" fill="#F8CAAF"/>
<rect x="34.9375" y="34.9375" width="2.6875" height="2.6875" fill="#F8CAAF"/>
<rect x="8.0625" y="5.375" width="2.6875" height="2.6875" fill="#F8CAAF"/>
<rect x="32.25" y="32.25" width="2.6875" height="2.6875" fill="#F8CAAF"/>
<rect x="29.5625" y="8.0625" width="2.6875" height="2.6875" fill="#CD7D0E"/>
<rect x="5.375" y="34.9375" width="2.6875" height="2.6875" fill="#CD7D0E"/>
<rect x="32.25" y="10.75" width="2.6875" height="2.6875" fill="#CD7D0E"/>
<rect x="8.0625" y="37.625" width="2.6875" height="2.6875" fill="#CD7D0E"/>
<rect x="34.9375" y="8.0625" width="2.6875" height="2.6875" fill="#CD7D0E"/>
<rect x="10.75" y="34.9375" width="2.6875" height="2.6875" fill="#CD7D0E"/>
<rect x="8.0625" y="34.9375" width="2.6875" height="2.6875" fill="#F8CAAF"/>
<rect x="32.25" y="8.0625" width="2.6875" height="2.6875" fill="#F8CAAF"/>
<rect x="21.5" y="18.8125" width="2.6875" height="2.6875" fill="#CD7D0E"/>
<rect x="18.8125" y="21.5" width="2.6875" height="2.6875" fill="#CD7D0E"/>
<rect x="21.5" y="24.1875" width="2.6875" height="2.6875" fill="#CD7D0E"/>
<rect x="24.1875" y="21.5" width="2.6875" height="2.6875" fill="#CD7D0E"/>
</svg>
